<svg version="1.1" id="Layer_1" xmlns="http://www.w3.org/2000/svg" xmlns:xlink="http://www.w3.org/1999/xlink" x="0px" y="0px"
	 width="100%" viewBox="0 0 720 544" enable-background="new 0 0 720 544" xml:space="preserve">
<path fill="#000000" opacity="1.000000" stroke="none" 
	d="
M367.466125,545.000000 
	C370.483154,542.643311 374.607056,541.910706 378.501373,540.727905 
	C395.127289,535.678345 409.596466,525.933167 425.527374,519.390076 
	C428.155426,518.310669 430.017914,516.005310 432.218842,514.319275 
	C437.456787,510.306580 443.426331,508.024597 449.223602,505.188171 
	C457.239136,501.266479 459.625519,493.144989 461.536011,485.322388 
	C463.415039,477.628662 463.418610,469.827209 458.684296,462.786255 
	C458.340668,462.275238 458.342712,461.503326 458.281799,460.843719 
	C458.254791,460.551239 458.471375,460.236237 458.693176,459.598389 
	C462.761475,459.605408 463.542267,462.972717 464.285645,465.723907 
	C467.087372,476.093170 465.902985,486.325256 462.231476,496.787537 
	C465.446899,496.410828 466.348633,493.748779 466.951447,492.050568 
	C469.725372,484.236023 472.657806,476.364197 468.711884,467.908813 
	C466.614105,463.413635 465.458771,458.527954 463.527191,453.913239 
	C460.109985,445.749084 453.935516,440.040894 447.632324,434.342621 
	C442.696899,429.880859 437.783600,433.525024 434.446564,435.932770 
	C425.532562,442.364349 414.961578,443.193695 405.093903,446.258209 
	C392.706543,450.105286 379.763672,450.750854 366.878784,451.370728 
	C363.204834,451.547485 360.672058,453.059723 359.196167,456.618866 
	C356.190704,463.866455 353.292877,471.103760 353.321533,479.132141 
	C353.325653,480.280853 353.552429,481.965820 352.381866,482.300262 
	C345.473541,484.273926 347.602203,490.417725 346.401733,494.970215 
	C345.955383,496.662994 346.479706,498.688110 343.734894,499.668182 
	C341.304138,495.061707 343.466614,490.610199 344.326111,486.343353 
	C346.902710,473.552368 352.346375,461.767242 357.730743,449.977234 
	C358.581421,448.114471 360.170319,446.136749 358.265137,443.999084 
	C356.594391,442.124481 354.546783,442.574890 352.291534,442.762299 
	C347.810669,443.134613 344.568695,445.204071 341.675079,448.455933 
	C337.590698,453.045990 333.249237,457.406525 329.052429,461.897675 
	C327.663788,463.383698 326.113525,465.419098 324.114929,463.614899 
	C321.732361,461.464172 324.754059,460.300629 325.735931,458.840179 
	C326.286835,458.020721 327.002075,457.311768 327.907135,456.240723 
	C324.281830,454.551422 323.935638,452.483978 327.546600,450.695374 
	C330.663239,449.151672 332.123993,444.506592 336.727112,445.779175 
	C338.497833,440.254150 344.491943,440.966858 348.043365,438.098450 
	C350.988068,435.720062 350.788025,429.830841 347.731354,425.190796 
	C336.568634,408.245453 327.570404,390.208954 319.900726,371.431854 
	C317.736786,366.133942 315.044952,360.977570 311.741821,356.105225 
	C304.366455,345.226074 301.061157,332.686798 298.798553,319.900360 
	C295.996033,304.062622 293.408478,288.176178 287.886169,272.988281 
	C286.493622,269.158447 286.577637,265.155365 285.766388,261.261078 
	C283.048859,248.216354 278.202332,235.893265 273.819153,223.387314 
	C271.252747,216.064987 269.952484,208.306229 267.544617,200.919189 
	C264.383331,191.220795 262.884186,180.862869 257.026733,172.178604 
	C252.942093,166.122757 247.543060,162.479935 239.768478,164.057129 
	C238.556717,164.302979 237.362686,164.252823 236.982910,162.754150 
	C236.641647,161.407516 237.428741,160.524368 238.486206,159.895035 
	C241.289520,158.226746 244.115967,158.449509 247.098190,159.578506 
	C257.558838,163.538651 262.813080,171.357880 266.507782,181.774109 
	C272.497009,198.658997 275.225983,216.460175 282.146667,233.070694 
	C286.279449,242.989883 288.962189,253.515442 290.338226,264.268707 
	C290.529205,265.761108 290.421539,267.326599 292.588959,268.010590 
	C294.782654,264.868805 294.236328,260.845398 294.147369,257.715027 
	C293.865906,247.810562 292.447235,237.928619 291.259521,228.063095 
	C290.440216,221.257538 290.290588,214.508987 291.310669,207.713379 
	C291.678436,205.263672 292.121735,202.579590 291.504791,200.277344 
	C290.085297,194.979919 291.443207,190.104370 292.677216,185.105957 
	C294.652374,177.105698 290.428589,170.388489 282.355957,168.339035 
	C280.119232,167.771179 277.887634,167.042557 275.799194,166.073990 
	C274.012421,165.245361 272.262604,164.057785 273.364838,161.256317 
	C277.881958,160.688141 281.357483,165.111542 286.515045,164.192429 
	C282.282501,157.603699 275.661621,155.547028 269.357788,153.667358 
	C261.476807,151.317429 253.497589,149.501328 244.924881,151.224167 
	C230.145554,154.194321 217.207169,159.816803 207.595413,172.009033 
	C196.960449,185.499130 190.931839,201.439484 183.358902,216.550568 
	C177.235245,228.769714 180.133224,241.022202 184.202377,253.128601 
	C184.898804,255.200577 186.734604,256.152985 188.455185,257.160248 
	C189.969833,258.046967 190.692520,259.217773 189.811157,260.861572 
	C188.924957,262.514313 187.404572,262.426697 185.887436,261.901123 
	C183.228577,260.980011 181.065857,259.168365 180.146469,256.660156 
	C178.907898,253.281204 178.367645,249.646301 177.309692,245.206375 
	C175.962311,255.576859 170.177261,263.477783 167.605042,272.640472 
	C166.605072,276.202515 166.174408,279.800262 165.595947,283.345520 
	C164.691513,288.888611 164.668198,294.580322 164.364029,300.214050 
	C164.248383,302.356262 164.172821,304.486267 165.932236,306.278503 
	C167.258072,307.629089 166.709381,309.259491 166.075882,310.930298 
	C163.938217,316.568420 163.055878,321.824127 167.886932,327.075928 
	C170.933380,330.387695 171.778198,335.537537 176.079254,338.140747 
	C177.166473,338.798767 177.543365,340.044586 176.647888,341.175568 
	C175.576355,342.528931 174.368393,342.121521 173.154922,341.230286 
	C170.969421,339.625092 169.296524,337.664032 168.015320,335.231049 
	C166.818680,332.958740 166.275909,330.142792 163.133362,328.525879 
	C160.297806,333.871857 160.953171,339.858917 159.505325,345.317505 
	C158.721558,348.272369 157.951004,351.389252 159.176437,354.599426 
	C159.594315,355.694122 159.482437,357.625000 158.770584,358.416107 
	C153.372314,364.415497 156.867233,370.523956 159.863892,375.187195 
	C162.386597,379.112854 162.348206,382.201324 161.692978,387.228119 
	C155.919601,381.848602 156.573334,374.255463 152.178482,368.353790 
	C143.758682,391.101135 144.238510,414.060669 145.351624,437.328430 
	C142.099518,436.581207 141.886002,434.728546 141.777283,433.224152 
	C140.191162,411.276398 139.381424,388.989471 148.059326,368.494995 
	C154.395676,353.530548 156.519836,337.891205 160.221313,322.515198 
	C162.578064,312.725098 160.186676,302.377258 160.722565,292.306610 
	C161.393875,279.691284 163.114639,267.271851 170.115509,256.234711 
	C173.186264,251.393539 172.685822,245.638733 173.424438,240.288345 
	C177.164124,213.199371 189.257706,189.666718 205.139252,168.141541 
	C214.395996,155.595352 228.225845,149.294815 243.697891,146.576279 
	C251.831863,145.147095 259.484741,146.288925 267.259705,148.310165 
	C269.412842,148.869904 272.146271,150.970596 274.054474,147.971603 
	C275.818634,145.199020 272.086121,144.150436 271.683990,141.743149 
	C274.068939,139.183731 275.676605,136.278824 273.424194,132.642090 
	C272.880493,131.764191 272.573700,130.780090 273.512878,129.937592 
	C274.692902,128.879013 275.694641,129.685638 276.617584,130.381409 
	C277.680145,131.182449 278.547333,132.321960 279.706116,132.899857 
	C282.286835,134.186920 284.485413,134.025101 285.317474,130.782761 
	C283.941315,128.266006 280.272095,129.299820 279.226440,125.938515 
	C283.266815,122.887932 288.057434,125.777122 289.852448,127.489563 
	C292.808746,130.309845 293.081909,135.421112 291.745239,139.724594 
	C289.190826,140.845795 288.443115,137.976822 286.235229,138.070236 
	C286.001251,139.894943 285.926208,142.072479 288.055237,142.353088 
	C292.929077,142.995468 294.611450,138.789764 297.098114,135.461624 
	C296.098694,134.644669 295.125183,133.848892 294.094421,133.006332 
	C294.625793,130.496780 295.800171,127.987610 297.995514,127.528419 
	C301.743347,126.744499 301.836823,124.432442 301.653961,121.644386 
	C300.605530,105.661072 305.559479,91.038597 312.795929,77.278648 
	C318.250824,66.906258 324.591095,56.853725 333.882507,49.251141 
	C350.177979,35.917522 368.334839,26.827997 389.437897,23.525000 
	C408.416687,20.554485 426.558044,22.785294 444.276428,29.664152 
	C447.311401,30.842417 449.868042,33.176674 453.322693,33.435398 
	C454.825531,33.547951 457.558044,33.407051 457.101379,32.391495 
	C454.852356,27.389700 462.194031,23.480953 457.760498,18.537455 
	C461.326294,17.610630 463.180603,18.417986 463.294861,21.804829 
	C463.333954,22.963097 463.306793,24.150661 463.098206,25.285942 
	C461.418793,34.426865 462.476746,35.678112 472.022095,35.638351 
	C473.120270,34.164829 472.489807,32.441025 472.640747,30.829889 
	C472.778625,29.358320 472.424286,27.818811 473.474884,26.119619 
	C476.691925,26.257219 479.567596,26.367893 477.084015,31.110870 
	C475.525024,34.088184 476.710907,36.413994 479.250793,38.324448 
	C483.861542,33.249653 479.450073,26.453701 482.914703,21.291945 
	C484.680908,25.519655 485.367096,29.799551 485.449493,34.177868 
	C487.273010,34.973755 490.071442,31.773689 490.607239,34.660225 
	C491.307526,38.433170 487.346344,38.862961 484.452179,40.246014 
	C488.589294,39.739868 489.565063,43.295029 491.620453,45.223625 
	C494.481995,47.908623 497.837341,44.375561 500.467316,46.238674 
	C501.723389,47.756161 499.955811,49.289227 501.187592,50.296017 
	C506.080200,55.152302 511.326569,59.708321 515.771606,64.944572 
	C520.780212,70.844795 526.005554,76.599884 530.089050,83.306274 
	C531.730896,86.002731 533.905396,88.566612 534.466187,91.564224 
	C536.578979,102.857704 543.282959,111.911636 548.906616,121.385574 
	C553.493347,129.112564 554.708313,137.525925 556.226807,145.940353 
	C557.096008,150.756531 557.590576,151.462219 562.198730,149.343445 
	C564.134888,148.453217 565.945435,148.092102 567.959839,148.735229 
	C569.557983,149.245468 571.395203,149.685349 571.871826,151.470444 
	C572.490784,153.788422 570.153320,153.716415 568.951599,154.681808 
	C565.894409,157.137787 564.402527,160.004822 564.554810,164.503677 
	C564.833313,172.729843 563.354431,180.944244 561.081238,188.928833 
	C560.726074,190.176208 559.718689,191.034882 558.489502,190.848801 
	C556.818542,190.595856 556.501221,189.018356 556.789062,187.713943 
	C558.226013,181.202393 554.314392,177.055695 549.749512,174.183716 
	C544.804810,171.072769 539.248535,171.962540 534.264648,175.268539 
	C532.980164,176.120575 531.922241,177.066605 531.275330,178.500443 
	C530.388000,180.467117 530.705688,182.224396 532.481750,183.318802 
	C534.484009,184.552505 535.509949,182.979370 536.309265,181.421082 
	C537.670837,178.766937 539.203674,176.559021 542.541687,178.136292 
	C543.399536,180.123779 541.615906,180.716583 541.194397,181.900223 
	C540.416016,184.086151 541.081604,185.403305 543.363159,184.928146 
	C546.116943,184.354645 548.824768,182.578796 549.931396,187.111237 
	C550.948120,191.275253 546.991333,190.756699 545.104065,192.531357 
	C546.269104,196.444061 549.536926,197.716080 552.606689,199.312408 
	C554.582275,196.990662 552.726868,194.182739 554.841736,192.198318 
	C558.767822,193.319504 557.738708,196.947021 557.159363,199.016342 
	C555.484741,204.998383 558.880493,208.844025 562.022400,212.792618 
	C571.630432,224.867508 577.707642,238.262268 579.507141,253.778687 
	C580.957886,266.287811 582.729919,278.789215 583.201355,291.347595 
	C583.698059,304.579681 575.262878,309.770874 562.906616,305.477173 
	C555.818726,303.014160 549.897766,299.223907 544.140442,294.577515 
	C540.580688,291.704651 536.515625,288.385162 531.102905,290.190369 
	C530.341492,290.444336 529.545532,290.783813 529.304565,291.877563 
	C531.047668,294.334808 534.987427,293.839600 536.465332,297.050537 
	C536.836670,298.701538 534.552917,297.846680 534.202332,299.272522 
	C535.668335,301.717712 536.109253,305.127808 539.394287,306.562592 
	C541.156311,307.332123 541.752319,308.602448 540.606873,310.084320 
	C539.343689,311.718597 537.758667,311.400818 536.290649,310.059601 
	C534.542908,308.462769 534.275635,305.359406 531.239136,304.981598 
	C529.353149,306.697906 530.274658,308.295349 531.248352,309.900208 
	C532.048096,311.218414 534.025635,312.333710 532.382141,314.171722 
	C530.884949,315.846191 529.316223,314.296631 527.786865,313.955261 
	C527.475525,313.885773 527.143005,313.911316 526.817627,313.898071 
	C524.300415,315.567078 526.231506,318.757507 524.357849,320.885895 
	C521.202148,320.885803 518.130859,319.787476 515.207214,318.842651 
	C514.205566,319.951569 514.293640,320.966675 514.659119,321.906281 
	C516.362244,326.284698 514.790894,329.302917 510.861023,331.422821 
	C509.200043,332.318787 507.156769,333.666382 507.979004,335.506561 
	C508.735840,337.200470 509.897156,339.630310 512.479614,339.565308 
	C515.218262,339.496429 515.937927,341.017181 516.812073,343.284454 
	C518.531311,347.743683 520.958923,351.880859 524.978882,354.857880 
	C524.882507,357.519440 522.123474,357.813141 520.820068,359.439728 
	C521.674255,360.313599 523.932007,359.293915 523.740295,361.331635 
	C523.465637,364.249908 521.344360,365.870850 517.896301,366.881348 
	C522.475952,370.188232 525.235901,367.232513 527.989197,365.780518 
	C530.159546,364.635986 531.965637,362.791718 533.909424,361.228333 
	C537.341675,358.467865 541.085083,357.436951 544.905823,360.102997 
	C548.735413,362.775146 549.445740,367.001617 548.791260,371.225586 
	C548.102844,375.668488 546.524719,379.925842 543.696411,383.552460 
	C541.792297,385.993988 542.030151,388.103760 544.371582,390.061768 
	C544.881653,390.488281 545.564209,390.893585 545.780823,391.457214 
	C547.833984,396.800201 551.232788,395.980927 555.653625,394.374481 
	C562.900391,391.741241 572.196777,398.400116 572.286255,405.956421 
	C572.319153,408.738251 572.990295,410.451355 575.652832,411.872040 
	C583.533264,416.076935 584.832458,419.088104 583.461548,428.017365 
	C583.064514,430.603302 583.518188,432.751678 585.311096,434.916748 
	C591.062988,441.862640 590.928528,448.437439 585.040405,455.412201 
	C582.525513,458.391266 583.294434,462.093109 582.562805,465.420776 
	C581.487488,470.311432 579.820129,474.663818 575.912048,477.888885 
	C573.030396,480.266907 572.729553,483.604553 572.359314,486.880829 
	C571.831970,491.547241 569.500916,494.871796 565.541565,497.281433 
	C562.030823,499.417999 558.821899,500.045197 555.803345,496.460052 
	C553.247253,493.424072 551.327393,494.578461 549.713867,497.532104 
	C545.842468,504.618988 540.435608,506.586731 532.911499,503.575745 
	C530.514465,502.616516 528.590027,503.023132 526.404419,504.393768 
	C519.330383,508.830170 516.716309,508.523468 510.639923,502.925323 
	C508.958984,501.376587 507.408936,500.718597 504.893036,501.115784 
	C500.470062,501.813965 495.850800,502.053802 492.618927,497.731049 
	C491.910400,496.783386 490.671967,496.049683 489.525452,496.713196 
	C485.547058,499.015686 481.481598,497.921265 477.368835,497.395264 
	C472.056793,496.715881 467.473663,497.797455 463.465881,501.968536 
	C459.753754,505.831940 454.611786,507.952087 449.539124,509.466064 
	C443.155609,511.371216 437.531036,514.397400 432.895050,519.037231 
	C426.342804,525.594910 417.066895,527.132324 409.679596,532.143799 
	C402.117157,537.273987 393.572998,540.306458 384.839478,542.831177 
	C383.937836,543.091858 383.202515,543.927917 382.195007,544.748535 
	C377.310760,545.000000 372.621490,545.000000 367.466125,545.000000 
M541.505554,412.525574 
	C544.149414,408.879425 544.425842,404.489594 545.009888,400.298065 
	C545.515381,396.670441 542.773743,394.280914 539.171326,394.677795 
	C537.837097,394.824768 536.963135,394.189240 536.054260,393.482544 
	C534.520752,392.290131 533.038635,392.643280 531.410583,393.371307 
	C524.379028,396.515900 523.212830,403.725372 528.609070,411.040314 
	C536.222961,407.274597 538.764465,407.680267 540.253540,412.880188 
	C539.457153,412.684967 538.670471,412.417664 537.862488,412.308136 
	C535.463257,411.983032 532.952454,411.917114 532.528015,415.026154 
	C532.235596,417.168396 532.902588,419.595551 535.042175,420.470520 
	C537.815674,421.604797 539.136108,419.354858 540.245789,417.232422 
	C540.947693,415.889893 541.397827,414.513092 541.505554,412.525574 
M482.797485,274.625122 
	C481.981323,277.546509 478.242188,278.946960 478.960205,283.091949 
	C480.164734,279.533783 484.550568,281.757599 486.089569,278.297729 
	C485.080017,276.895172 484.037476,275.446777 483.123596,273.389221 
	C483.817352,272.221893 482.905060,270.123657 485.121979,269.848999 
	C486.956024,269.621796 486.917694,271.396423 487.751862,272.286652 
	C490.755371,275.492096 494.643707,277.875031 496.673645,281.994995 
	C496.727386,282.104065 497.284943,281.964935 497.957733,281.916168 
	C498.545135,276.945770 501.680695,277.287354 505.472778,278.454529 
	C508.818176,279.484222 512.034180,280.729492 515.214905,282.185425 
	C518.829041,283.839722 522.590088,284.763855 526.534668,281.842133 
	C523.408142,278.261719 519.860046,276.132660 515.973083,274.675385 
	C513.802246,273.861511 511.710632,271.198822 509.681366,272.149170 
	C505.604187,274.058563 501.831207,272.067078 497.941895,272.294403 
	C493.757233,272.539032 491.336304,269.356293 489.193542,266.515350 
	C487.919800,264.826569 488.522888,262.193054 491.120667,261.913513 
	C495.550110,261.436798 500.323761,260.551788 504.343140,262.971893 
	C511.922089,267.535248 520.178040,270.797363 527.544556,275.845245 
	C531.137268,278.307190 534.033203,280.105621 532.807861,284.918030 
	C533.758362,285.210999 534.372559,285.423981 534.999329,285.589813 
	C541.526794,287.317139 549.030396,285.860931 554.201660,292.058197 
	C556.008972,294.224091 558.499512,295.629089 560.353394,298.107513 
	C562.573792,301.076050 567.006287,302.539490 571.041748,302.217102 
	C575.128601,301.890594 577.173523,298.770325 578.401123,295.015472 
	C579.303284,292.256073 579.472229,289.700531 578.776123,286.782623 
	C577.705444,282.295532 576.795044,277.641846 576.781616,273.056061 
	C576.747742,261.503876 575.245239,250.214142 571.687073,239.260941 
	C567.023743,224.905685 558.311157,213.123718 547.683105,202.615616 
	C538.966492,193.997375 527.341675,188.100128 523.051086,175.307648 
	C521.766235,171.476868 519.324585,167.794357 515.310242,165.738083 
	C513.693420,164.909897 513.073364,163.153442 514.474792,162.064545 
	C519.051025,158.508698 523.368713,154.399368 528.851929,152.927734 
	C530.872192,154.206360 529.650513,156.790848 532.093628,157.296982 
	C533.741821,157.214249 534.836731,156.034500 535.727966,154.563568 
	C536.374939,153.495712 537.214050,152.623810 538.556580,153.128738 
	C544.050781,155.195114 547.328918,150.239166 551.762390,148.954498 
	C552.703064,148.681915 552.677734,147.233337 552.393677,146.245178 
	C550.385193,139.258102 549.497864,131.927322 545.841003,125.445572 
	C541.931213,118.515518 537.854614,111.658737 534.369446,104.516922 
	C531.839172,99.331841 530.655457,93.471794 527.987244,88.375610 
	C522.201538,77.325279 512.371826,69.617516 503.945953,60.654510 
	C501.358887,62.328625 502.573853,65.296745 501.519714,67.476837 
	C500.599365,69.380280 499.895050,71.411552 497.429504,70.987701 
	C495.114685,70.589760 495.880035,68.464722 495.797028,66.881416 
	C495.773438,66.431618 495.493011,65.995293 495.266968,65.380249 
	C491.770203,66.032860 489.745178,64.012154 488.187317,60.943321 
	C486.638977,62.683632 488.453217,66.529312 484.977417,65.866737 
	C482.330658,65.362198 481.762604,62.807560 481.955261,60.308224 
	C482.005402,59.658127 482.400177,59.037804 482.472412,58.385616 
	C482.680573,56.506012 482.804871,54.617126 482.995422,52.332523 
	C478.836151,53.367348 480.142212,57.214493 478.561279,59.071442 
	C475.514252,59.283005 474.962830,55.255081 472.096039,55.661236 
	C469.568573,56.019310 469.669800,60.213303 466.580688,59.774830 
	C463.482544,55.092155 468.041168,53.033104 470.566162,49.293911 
	C462.712677,49.814270 465.037079,57.008270 461.362427,60.745663 
	C459.570190,56.224789 460.528748,50.663704 454.070312,48.832996 
	C461.835968,48.681824 463.440460,44.687656 462.220886,38.676121 
	C461.024017,38.543530 459.511749,37.135353 457.768982,38.151459 
	C457.373627,40.266060 459.895325,40.979855 459.379395,43.240940 
	C457.074127,44.931931 454.200043,46.421860 452.916077,49.742832 
	C452.283295,51.379585 450.158386,52.081673 448.272217,52.247318 
	C445.412537,52.498470 443.635406,50.920971 445.187286,48.442974 
	C447.808197,44.258045 445.109253,43.287724 442.373962,41.874599 
	C440.679993,42.903893 441.596863,46.159683 439.029358,45.778847 
	C436.103058,45.344795 437.072815,42.949474 437.096680,41.008404 
	C437.109222,39.987038 436.232086,39.287495 435.120636,39.138851 
	C430.668945,46.558487 430.668945,46.558487 426.033112,40.506672 
	C422.964783,42.655991 419.783264,44.145672 416.016083,41.690166 
	C415.054749,41.063534 413.394531,41.254581 412.103424,41.427822 
	C399.576691,43.108650 388.112305,48.169868 377.268524,54.110405 
	C367.062012,59.701828 357.556549,66.674141 348.162109,73.607330 
	C342.836914,77.537415 336.092499,80.384651 333.979889,88.084137 
	C335.844208,88.686371 337.957703,89.353989 337.118835,92.456734 
	C339.563477,91.118858 341.653656,90.489265 343.258240,88.363945 
	C338.990479,85.932877 341.259644,82.542618 342.591797,79.949020 
	C344.045197,77.119400 347.022644,76.904770 350.245422,78.692581 
	C346.967560,83.763489 353.565796,88.846451 349.567688,93.694572 
	C351.121979,95.101036 353.410065,95.027344 353.881866,97.184883 
	C352.989990,98.936646 351.194519,99.017975 349.624451,99.663803 
	C349.559204,101.147804 352.423859,102.952423 349.491333,104.105537 
	C346.872894,105.135132 344.296143,107.713997 341.226044,105.163879 
	C339.980530,104.129295 338.397675,103.049644 339.235718,101.044823 
	C340.425812,98.197853 343.063568,99.100693 346.352997,99.477600 
	C343.428131,97.578247 342.140198,95.480484 339.780792,94.882172 
	C337.446655,96.628494 334.315704,98.170082 335.533844,101.528397 
	C337.162537,106.018692 335.118378,107.479294 331.360779,108.528435 
	C329.172272,109.139488 327.827393,110.589119 328.913330,113.234665 
	C329.670654,112.976295 330.002960,112.921906 330.265900,112.756996 
	C330.540466,112.584778 330.709106,112.180984 330.991119,112.092690 
	C335.497131,110.681755 338.717957,104.062515 344.928497,109.156250 
	C346.744812,110.645935 350.280975,108.726273 350.699554,106.677032 
	C351.991455,100.352432 357.293121,101.468376 361.283173,100.143585 
	C362.927612,99.597595 364.435822,100.401825 364.860077,101.958076 
	C365.384430,103.881660 364.091583,104.460472 362.251892,104.545212 
	C360.620453,104.620369 358.828583,104.826614 357.431122,105.577324 
	C354.921967,106.925209 354.854980,108.628624 357.610229,110.376030 
	C358.528625,108.091530 359.491486,106.150139 361.973694,105.933449 
	C362.849884,105.856956 363.853607,106.341270 363.808960,107.234383 
	C363.695099,109.514320 363.804443,111.968216 362.040588,113.763496 
	C361.251404,114.566788 360.046143,114.944489 359.162384,115.675705 
	C357.880188,116.736534 356.176483,117.567459 356.343811,119.933594 
	C358.446442,116.712242 361.892395,117.880928 364.670074,117.039543 
	C365.926331,116.659012 367.381287,117.397148 367.949310,118.752213 
	C368.487823,120.036804 367.368042,120.729118 366.628418,121.658852 
	C364.711914,124.067825 361.393402,123.995903 358.808533,126.027107 
	C367.627136,126.994118 367.627136,126.994118 370.755951,119.183037 
	C373.711456,120.185722 377.173523,119.669128 379.403381,122.849472 
	C380.356323,124.208618 381.887787,123.264191 382.501953,121.841202 
	C383.024170,120.631279 383.301117,119.317780 384.571136,118.724823 
	C386.712219,118.794029 385.681854,121.437477 387.709045,122.053444 
	C389.235901,119.388107 390.306152,116.021767 394.274384,115.634880 
	C395.340149,115.530975 396.413788,114.461914 397.466309,115.411179 
	C398.778748,116.594872 397.955566,117.967659 397.247040,119.016792 
	C396.233459,120.517601 394.981384,121.870155 393.741364,123.202469 
	C391.334045,125.788986 388.127808,127.569954 387.195404,131.522293 
	C386.327881,135.199783 383.828308,137.056564 379.687531,135.923508 
	C378.704865,135.654602 377.431091,136.324570 376.322998,136.665848 
	C374.260529,137.301132 372.809143,136.731155 372.017792,134.928268 
	C372.229553,132.344193 375.662720,133.006180 375.864929,130.547989 
	C374.407013,129.292236 372.771057,128.381592 370.905884,129.247681 
	C368.867126,130.194366 369.488464,131.915207 370.063385,133.561111 
	C370.556122,134.971649 369.683441,136.095551 369.118988,137.302063 
	C368.338165,138.971039 367.696136,140.713303 369.529266,142.465393 
	C373.231995,142.309921 376.164673,138.316895 380.225464,139.775940 
	C384.198914,141.203598 385.887543,144.832230 388.199005,147.849792 
	C385.997314,150.156891 384.174286,149.026245 382.017181,147.946854 
	C382.017181,147.946854 381.682526,147.595230 381.531982,147.043991 
	C379.324921,144.626389 374.840240,145.365158 373.367493,148.976059 
	C372.441559,151.246185 370.690552,151.388031 368.528290,152.149582 
	C372.892792,155.732330 372.154175,159.367188 369.655121,162.998520 
	C368.696808,164.391052 367.403137,165.751755 365.498291,164.814240 
	C363.528290,163.844635 363.862122,162.204926 364.737579,160.556107 
	C365.415497,159.279312 366.433136,157.917664 364.443451,156.815186 
	C362.733582,158.797409 362.733582,158.797409 361.781006,163.808502 
	C352.801971,164.043610 350.793121,165.389053 351.246521,172.016678 
	C354.652283,166.338104 360.087311,167.968781 364.615295,166.866257 
	C367.981049,166.046722 370.813507,167.685806 372.005432,171.262680 
	C372.272461,172.063950 372.253387,172.929382 371.563995,173.580063 
	C370.872101,174.233093 369.829651,174.370331 369.293640,173.783295 
	C364.574432,168.615005 363.196564,172.762955 361.607635,176.452835 
	C360.985748,177.896973 359.756897,178.721191 358.513519,179.602463 
	C357.385895,180.401688 356.691833,181.549332 357.911499,182.891327 
	C361.255341,182.170166 363.294342,179.935211 364.790649,176.746750 
	C368.053040,178.895370 370.026886,180.475449 365.694000,183.329575 
	C363.024323,185.088120 358.651276,187.827423 360.267517,190.703796 
	C362.702515,195.037201 359.850433,197.975967 359.728027,201.516907 
	C359.581268,205.761414 357.480103,210.034439 360.207794,214.225815 
	C363.912140,219.917892 363.850616,219.942535 357.242096,221.773087 
	C356.619934,221.945450 356.042053,222.387207 356.161041,223.558670 
	C359.117981,225.411407 363.533356,224.686630 366.067291,228.030685 
	C365.592621,229.768661 365.122559,231.489807 364.664612,233.166626 
	C366.968567,235.338486 368.682861,234.716873 370.161591,232.537949 
	C372.134003,229.631607 374.657257,230.547424 375.749451,232.717529 
	C378.517365,238.217270 381.008911,236.128220 384.056793,232.201019 
	C385.169647,237.793518 389.537415,233.639618 392.302704,235.964676 
	C388.821533,240.181763 396.000061,242.146484 393.651031,246.787613 
	C399.654602,245.883835 401.280975,242.032425 402.590485,237.829605 
	C403.110229,236.161636 401.572998,232.899078 404.641846,233.215973 
	C407.327698,233.493332 407.283752,236.517685 407.108765,238.895233 
	C407.061768,239.533905 407.101685,240.178970 407.101685,240.761383 
	C408.977692,241.903931 410.736359,242.975006 412.437286,244.010910 
	C415.465149,242.412186 417.303284,236.980759 421.227722,241.806671 
	C423.321655,240.595367 423.922028,238.785538 424.924011,237.272812 
	C425.495514,236.409973 426.311646,235.799896 427.439545,236.012131 
	C428.341522,236.181854 429.030396,236.825821 429.070038,237.680191 
	C429.249786,241.553726 426.761658,244.018372 424.386749,246.645706 
	C422.023071,249.260559 420.378662,247.207703 418.557709,245.754150 
	C417.543365,247.095337 416.832123,248.225876 415.933380,249.179764 
	C414.575500,250.620956 412.847961,250.957886 411.745270,249.124832 
	C408.671814,244.015854 406.860352,247.116058 405.150543,250.064178 
	C404.126892,251.829178 402.812897,253.265488 401.421112,254.708008 
	C400.318512,255.850876 398.862823,257.073792 400.276978,258.963409 
	C407.049133,257.478394 407.049133,257.478394 406.369110,264.309418 
	C410.007324,263.312836 411.919952,261.287750 411.149170,257.518433 
	C410.791840,255.771027 410.966980,254.409210 412.752075,253.955490 
	C414.484253,253.515228 416.806305,252.931244 417.802277,254.712250 
	C418.922424,256.715302 421.170135,257.997955 421.389069,260.578156 
	C421.553314,262.513977 422.575073,263.623932 425.000366,262.944092 
	C425.573212,259.907318 426.525269,256.976776 429.624481,255.360489 
	C431.039062,254.622772 432.212891,254.935608 433.304962,255.830490 
	C434.613434,256.902710 434.506500,258.383270 433.436310,259.322784 
	C430.513062,261.889069 430.268372,266.863403 425.584564,267.873260 
	C424.663605,268.071838 424.114105,269.205719 424.980316,270.989471 
	C427.595337,271.104858 430.528900,271.276794 433.028595,269.351044 
	C436.608612,266.593048 441.311279,264.529694 444.969238,264.085144 
	C456.655640,262.664703 465.151184,255.942734 473.895416,249.505035 
	C481.830414,243.663086 489.797150,238.083069 499.642212,236.111404 
	C508.093658,234.418854 516.673279,235.243652 521.974243,242.312927 
	C525.580505,247.122238 528.993958,251.792923 533.775391,255.406006 
	C535.400879,256.634308 535.626038,258.027618 534.596375,259.708893 
	C529.101074,258.674042 523.035889,253.818130 519.778809,247.532944 
	C518.396240,244.864838 516.613281,243.168533 513.677368,242.141556 
	C502.931366,238.382614 491.787079,242.251526 485.220917,251.442383 
	C481.425568,256.754913 483.140411,263.070465 480.731812,268.474609 
	C479.504578,271.228149 480.704071,272.796844 482.797485,274.625122 
M538.817993,383.356049 
	C542.711670,378.175537 546.445374,372.951385 543.875244,365.743958 
	C540.738831,366.667847 539.721985,369.408020 537.810486,371.162964 
	C535.390137,373.385132 533.057861,375.151123 529.434021,373.182037 
	C524.714233,370.617371 522.256470,371.988281 520.855530,377.415649 
	C520.243713,379.786194 518.632385,381.617279 516.638000,382.700958 
	C514.671387,383.769592 513.945801,381.378265 512.751953,380.389771 
	C511.743561,379.554871 510.709595,379.627960 509.485260,379.929260 
	C502.859619,381.559845 497.848083,385.107056 494.430115,391.184784 
	C489.543640,399.873688 483.340302,407.615570 477.028351,415.350098 
	C471.854828,421.689575 465.686737,426.950317 460.318024,433.028809 
	C458.049408,435.597443 457.303894,438.123688 460.020386,440.366150 
	C466.046814,445.341064 467.854004,452.565552 470.620819,459.262146 
	C474.524811,468.711121 476.219696,478.329437 472.117249,488.269684 
	C470.764099,491.548309 472.232239,493.450073 475.723480,493.591217 
	C478.716583,493.712158 481.727173,493.781708 484.713654,493.601807 
	C490.065491,493.279358 492.446686,490.851288 492.586975,485.377441 
	C492.681061,481.704803 492.495270,477.963409 493.940552,474.562622 
	C497.501648,466.183197 503.632599,461.657532 510.823883,470.754761 
	C511.097961,471.101501 511.656738,471.223236 512.040894,471.427551 
	C521.947083,464.368591 521.947083,464.368591 529.778137,470.358032 
	C531.674622,469.687469 532.228943,467.750305 533.450073,466.440094 
	C537.228760,462.385468 541.423950,461.910248 544.536499,465.585175 
	C547.088135,468.597931 549.462524,471.906799 549.414673,476.208710 
	C549.393982,478.069519 549.851135,479.721344 551.227844,481.135468 
	C553.406677,479.719147 552.469421,477.716095 552.611206,476.042145 
	C552.848267,473.242828 552.330627,470.413696 553.223083,467.627533 
	C554.873779,462.474121 558.828918,459.293854 563.314392,459.704773 
	C567.469421,460.085419 570.416016,463.397827 571.282104,468.629639 
	C571.560242,470.309784 570.744934,472.429443 573.234436,473.401794 
	C577.026489,471.858276 578.419739,468.842804 578.845581,464.881592 
	C579.129333,462.241760 578.736938,460.639679 575.828979,460.355469 
	C574.535767,460.229065 572.937134,460.269592 573.004761,458.336273 
	C573.064209,456.635834 574.568481,456.148438 575.823242,456.010681 
	C580.593689,455.486969 583.095520,452.327301 584.824402,448.389496 
	C586.532471,444.499268 584.403625,438.112122 580.512451,436.279755 
	C576.222229,434.259552 574.425598,438.158051 572.208862,440.622467 
	C570.994629,441.972382 569.981323,443.515381 568.971558,445.033936 
	C567.599854,447.096924 565.652710,448.231537 563.324951,448.855377 
	C561.326904,449.390778 559.111389,449.934875 558.149048,447.529785 
	C557.290649,445.384521 557.084778,442.890747 558.529846,440.832306 
	C559.387512,439.610626 560.836121,439.408661 561.900269,440.755157 
	C562.597168,441.636963 562.784424,442.962585 564.221497,443.112885 
	C564.537720,443.038696 564.937805,443.063080 565.157959,442.875854 
	C569.759766,438.961700 570.572876,431.200256 578.052917,430.175995 
	C578.275269,430.145538 578.485779,429.683350 578.616821,429.385101 
	C580.169434,425.850250 581.735657,422.485626 578.621948,418.745209 
	C575.641541,415.164886 572.723450,413.961273 568.363647,416.425201 
	C565.500488,418.043304 563.127136,419.882751 561.570557,422.771423 
	C560.717773,424.353973 560.021240,426.200928 557.632141,425.796478 
	C556.359131,421.471100 558.577148,416.369904 562.479187,414.561005 
	C568.610291,411.718658 570.019592,404.174835 565.174683,400.132263 
	C560.259827,396.031281 550.199280,398.961121 548.367676,405.321381 
	C546.571228,411.559357 544.779541,417.747803 541.228699,423.248322 
	C537.500732,429.023041 532.188538,429.180023 527.900513,423.858917 
	C525.799072,421.251160 525.406494,418.115997 524.698975,415.076843 
	C523.198608,408.631897 521.142944,407.560150 515.418701,410.382263 
	C514.274658,410.946289 513.238708,412.018799 511.577118,411.343964 
	C510.445068,409.813965 510.501282,408.024933 512.271301,407.226440 
	C516.630371,405.259979 517.388611,402.518188 514.353394,398.585846 
	C517.128540,397.265625 520.601807,398.028351 521.786621,394.744049 
	C522.598999,392.492188 524.609497,391.795380 526.487915,390.717010 
	C530.461243,388.435974 535.644104,388.285339 538.817993,383.356049 
M299.365265,254.615768 
	C303.816345,265.606079 300.915802,277.246094 302.337738,288.506927 
	C302.617340,290.721039 302.254395,292.814819 300.022583,294.146973 
	C298.292145,295.179871 298.422180,296.708252 298.880951,298.518463 
	C300.464600,304.767090 302.439362,310.993683 303.206482,317.356323 
	C304.859192,331.064148 309.146698,343.713593 316.338287,355.457916 
	C320.143372,361.671875 323.611969,368.008087 325.710327,375.116760 
	C328.197876,383.544037 332.666504,391.036560 338.540222,397.772858 
	C339.331390,385.597961 329.666168,376.322113 328.766418,364.335876 
	C333.846558,364.941315 332.971466,369.106720 334.379608,371.625732 
	C341.454895,384.282684 343.944214,398.404327 347.062469,412.296631 
	C348.958740,420.744720 348.938385,421.170959 353.043976,424.924103 
	C354.542145,418.894440 356.964050,416.769958 361.177612,417.789368 
	C364.772491,418.659088 366.648529,423.204498 365.077667,428.303314 
	C362.716736,435.966736 357.889771,430.966919 353.649017,429.855011 
	C353.526855,434.226746 352.679413,438.312103 358.674255,439.023071 
	C360.659241,439.258484 362.127472,440.732880 362.411346,443.137054 
	C362.719147,445.743896 364.043030,447.390686 367.112152,446.961151 
	C369.243591,446.662842 371.426483,446.636444 373.585327,446.651093 
	C377.452698,446.677277 378.376953,444.281006 377.274658,441.372406 
	C374.571625,434.240112 372.616394,426.407043 368.213715,420.439697 
	C362.431641,412.602783 360.915131,401.844025 351.781799,396.389313 
	C351.546234,396.248718 351.296875,395.754486 351.370636,395.528534 
	C352.826904,391.068298 350.545258,388.430176 347.054504,386.241943 
	C346.221191,385.719574 346.232880,384.606659 346.144196,383.550629 
	C345.730072,378.619446 344.299652,374.249481 338.835602,372.847534 
	C338.714539,366.759369 336.062469,361.124878 337.562347,355.093201 
	C337.877808,353.824585 337.095276,352.150604 336.491302,350.811035 
	C334.800018,347.060059 331.792542,346.608948 329.111267,349.758301 
	C327.035065,352.196991 325.707458,355.071198 325.216339,358.289185 
	C325.044983,359.412170 324.400879,360.112762 323.180115,359.948547 
	C322.190460,359.815399 321.764496,359.013885 321.772522,358.168488 
	C321.851440,349.837433 323.374573,341.529358 329.090118,335.504669 
	C331.961395,332.478088 332.529846,330.356262 331.614502,327.002563 
	C330.652161,323.476746 329.583008,319.979736 328.645172,316.447632 
	C328.326233,315.246338 327.866364,314.045044 326.699219,313.733246 
	C321.960815,312.467224 322.916321,309.234985 324.306061,306.297913 
	C325.600159,303.563080 325.278412,300.802765 324.188293,298.587219 
	C318.038116,286.087494 316.345886,272.030518 310.300659,259.516663 
	C309.882629,258.651398 309.663239,257.580414 309.704102,256.620117 
	C310.126160,246.702545 304.231293,239.716736 298.559937,232.139343 
	C296.792236,235.021317 297.231903,237.909912 297.461304,240.585907 
	C297.841492,245.020950 298.695740,249.415344 299.365265,254.615768 
M425.253693,332.638916 
	C424.222046,328.115051 421.191650,324.155792 420.868164,319.329315 
	C424.001160,318.692230 424.857910,320.210815 425.709625,322.255219 
	C433.067108,339.916473 446.718536,351.761963 462.776184,360.963165 
	C472.590942,366.587097 493.851685,365.584137 502.827240,353.655121 
	C506.658752,348.562836 506.202179,336.995544 500.426636,332.793152 
	C499.343750,333.492493 499.710938,334.415192 499.880585,335.438873 
	C501.278992,343.877991 495.318604,350.772095 486.877441,349.089874 
	C475.312897,346.785217 464.022003,343.237854 453.254150,338.115967 
	C448.567200,335.886566 445.523773,331.979675 441.739441,328.873535 
	C434.640045,323.046356 428.412659,316.384216 426.507477,306.836456 
	C425.692535,302.752350 424.266388,299.266052 418.974701,301.206818 
	C418.085266,297.577332 419.119751,294.816650 421.545929,293.213837 
	C423.964539,291.616058 426.188873,293.979492 427.624695,295.449890 
	C431.231659,299.143677 435.584412,300.351379 440.431976,301.295227 
	C445.763702,302.333374 451.435486,302.648346 456.205200,305.592438 
	C465.345123,311.234100 474.878967,315.144043 485.815308,316.154297 
	C490.492920,316.586395 493.525665,315.734222 496.235535,312.424530 
	C497.274567,311.155426 497.910309,309.418671 500.582947,310.376190 
	C500.076324,312.922882 500.987335,314.997833 504.102631,314.472534 
	C506.087463,314.137878 508.195526,314.539825 509.950531,314.039429 
	C514.391602,312.773193 517.134705,309.446320 518.266357,304.952698 
	C519.290466,300.886108 518.034241,297.911987 514.139648,295.880219 
	C511.982635,294.754913 509.802917,293.187408 509.681732,290.274963 
	C509.510986,286.171265 506.662476,284.388123 502.656036,282.184113 
	C502.656036,285.985596 502.164093,289.222809 502.803864,292.218292 
	C503.366608,294.853180 503.124054,296.985718 501.243317,298.528870 
	C498.975830,300.389435 497.776520,297.958618 496.357117,296.704407 
	C495.500488,295.947449 494.601776,294.668121 493.408081,295.163330 
	C488.091797,297.368622 482.516998,295.830688 477.103943,296.490295 
	C474.577332,296.798157 472.753754,298.735565 470.145386,298.964050 
	C464.047760,299.498260 458.646057,293.681213 452.235687,297.088226 
	C451.858551,297.288635 450.547577,296.535706 450.239532,295.934998 
	C447.804932,291.187469 445.033997,290.711578 441.660278,295.004395 
	C441.366028,295.378815 440.581909,295.907410 440.520050,295.848145 
	C436.751617,292.236877 431.041931,295.104614 427.746063,292.794281 
	C423.343292,289.708099 421.184296,290.311371 417.640411,293.638397 
	C414.293579,296.780396 415.419189,300.242859 415.031036,303.364716 
	C416.068604,305.139587 418.266693,304.125641 419.167084,306.317047 
	C415.178528,309.824646 417.195160,314.856415 416.389130,319.388153 
	C415.197601,326.087036 418.141357,330.499634 422.611694,334.559601 
	C424.478546,336.255096 425.207458,335.313293 425.253693,332.638916 
M314.550964,255.765564 
	C316.212738,262.276031 319.594025,267.381409 326.377838,269.313873 
	C328.718781,269.980743 332.105865,270.520996 332.464661,267.143707 
	C332.779083,264.184174 334.015289,262.311523 335.966431,260.795410 
	C335.676819,258.784210 332.818939,258.857544 333.337433,256.516846 
	C335.297058,254.968704 337.776459,255.935608 339.969299,255.376892 
	C342.400208,254.757523 343.008453,253.465149 341.721466,251.393997 
	C338.975861,246.975418 339.510345,243.636581 344.180206,241.537231 
	C347.545776,240.024231 349.025909,237.924286 349.025848,234.370102 
	C347.359375,234.788574 347.233032,238.079147 344.851685,236.805374 
	C343.039764,235.836182 344.062714,233.782700 343.617188,232.276398 
	C342.516357,228.554474 345.664612,226.242569 346.382294,223.237701 
	C347.729828,217.595566 348.800385,211.916031 349.282654,205.979263 
	C349.893982,198.453552 349.229279,191.138962 349.079803,183.750381 
	C349.032959,181.434784 348.050842,178.253967 344.397766,180.393112 
	C341.953491,181.824402 341.064362,180.142685 339.993042,178.734772 
	C337.151459,175.000351 333.906769,171.616272 330.033356,169.039230 
	C326.460815,166.662338 322.560211,164.534866 317.937195,165.642944 
	C303.621582,169.074203 293.697479,184.845596 295.966705,199.491577 
	C296.677795,204.080978 297.772949,208.585175 298.564850,213.143951 
	C299.887573,220.758377 300.802002,229.006607 306.536560,234.701157 
	C312.383484,240.507324 313.887207,247.392456 314.550964,255.765564 
M406.493774,30.079828 
	C403.287048,25.046032 396.988861,25.092602 394.301453,30.138382 
	C396.874451,32.178902 400.027802,28.145037 402.825806,30.937975 
	C401.336456,34.319603 397.859100,35.395645 395.494232,34.818237 
	C391.938599,33.950077 390.470184,35.467541 388.507538,39.308163 
	C387.049805,31.041027 380.980194,32.800457 375.870605,31.261898 
	C376.091003,35.827908 375.592896,40.088654 369.388672,39.297443 
	C369.128754,39.264301 368.822113,40.803947 367.732544,40.737579 
	C365.309570,39.119549 358.276825,39.921917 357.114838,42.077026 
	C357.382111,43.353016 359.690735,43.800198 358.688629,46.193504 
	C354.016235,48.212254 347.324097,42.689754 343.142548,50.070000 
	C340.281342,55.119915 336.709564,59.662376 335.105560,65.685097 
	C337.799774,65.797279 339.779541,63.498623 342.373077,66.231232 
	C337.499054,73.925888 327.329926,77.949303 324.759583,88.437080 
	C329.667450,86.780983 331.380829,83.229469 332.522034,79.427933 
	C333.044464,77.687523 333.462616,76.110107 335.403137,75.889740 
	C338.410492,75.548210 340.586823,73.710739 342.834320,72.057396 
	C354.267944,63.646435 365.637024,55.147713 377.047760,46.705540 
	C384.187958,41.422897 392.592804,39.078072 400.939850,36.684864 
	C404.098328,35.779293 407.338379,35.334385 406.493774,30.079828 
M512.324219,494.997406 
	C513.088257,498.609528 512.386414,502.761993 519.075378,501.368652 
	C521.779236,500.805481 524.865967,502.025726 526.230103,498.766205 
	C528.784851,492.661835 528.648376,486.390869 526.549988,479.275330 
	C520.949341,486.360901 518.628479,477.857117 514.409058,477.616241 
	C511.240417,482.855957 512.591858,488.594696 512.324219,494.997406 
M546.141235,496.349213 
	C549.538818,490.077393 545.828857,484.257538 545.701660,478.184174 
	C542.033936,478.094849 538.997925,478.875336 536.127808,477.883575 
	C532.653564,476.683014 531.344238,478.290802 531.447815,481.389832 
	C531.584534,485.482391 532.579895,489.529541 531.454346,493.666687 
	C531.030518,495.224823 531.830017,496.850677 533.790161,496.683197 
	C537.395020,496.375122 541.015198,495.404785 544.228699,498.084076 
	C544.335266,498.172913 545.211182,497.339142 546.141235,496.349213 
M528.868652,168.958954 
	C536.245667,162.590271 548.136353,160.970291 552.470886,165.978088 
	C548.810913,168.754852 544.329468,166.777222 540.367188,168.270996 
	C547.344971,167.599045 552.930786,170.215012 557.775391,176.161270 
	C559.080322,172.039200 560.365723,169.131134 560.887390,166.091949 
	C561.985474,159.693359 554.755005,152.637161 550.148804,155.886353 
	C543.457642,160.606247 535.420166,161.924927 528.640686,166.113876 
	C526.871704,167.206879 525.399109,168.244095 525.602356,170.552399 
	C527.065186,170.942230 527.579407,169.833069 528.868652,168.958954 
M556.101257,474.553650 
	C555.614075,478.756073 555.495544,482.979950 554.708313,487.178101 
	C554.252747,489.607697 555.771240,491.860107 558.032349,493.423065 
	C560.294312,494.986542 562.114807,493.932526 563.994812,492.851196 
	C568.308533,490.370117 571.032776,480.984070 568.843384,476.543610 
	C568.192322,475.223175 567.397278,474.374786 565.874512,474.329285 
	C562.768005,474.236481 559.662109,474.121674 556.101257,474.553650 
M309.519623,114.065964 
	C310.950195,112.322899 312.697510,110.935272 314.137146,109.106598 
	C318.658173,103.363861 316.132874,96.163383 318.988068,89.995232 
	C320.824371,86.028297 321.139435,81.123901 322.545380,76.716133 
	C323.131042,74.880020 323.631897,73.489090 325.688690,73.773041 
	C328.647736,74.181534 330.221069,72.377701 331.855835,70.385399 
	C329.908600,69.985809 328.541656,73.612587 326.591003,71.328316 
	C323.636627,67.868668 329.148956,65.664551 328.182068,61.850830 
	C325.927338,64.917473 323.215637,67.379051 322.062927,70.429726 
	C319.691132,76.706787 317.412292,82.797485 313.645142,88.556213 
	C312.273529,90.653000 309.208496,95.020554 311.844574,99.536110 
	C313.210266,101.875496 313.324738,106.150673 310.591278,108.037544 
	C307.683929,110.044434 307.907837,111.830376 309.519623,114.065964 
M381.413330,405.137329 
	C379.651642,403.258301 378.091278,401.101501 375.192413,400.383606 
	C377.141022,408.017975 377.186676,408.107574 370.518341,411.504822 
	C367.935791,412.820526 368.142731,414.363678 369.478638,416.271301 
	C371.286346,418.852631 372.985168,421.459839 374.265533,424.380127 
	C375.461090,427.106934 375.389282,431.976837 378.938538,431.667908 
	C382.545349,431.353973 382.226227,426.613495 383.008331,423.503662 
	C383.596924,421.163391 385.329254,418.467682 382.406555,416.811707 
	C379.626740,415.236664 378.675781,418.756653 376.732758,419.670593 
	C376.472565,419.792999 376.105164,419.687469 375.450043,419.687469 
	C373.701721,416.079651 375.583069,413.473206 378.211090,411.396881 
	C380.128265,409.882202 381.859741,408.525146 381.413330,405.137329 
M394.764587,428.975891 
	C394.569305,426.920380 395.249634,423.916046 392.271149,423.866241 
	C389.447754,423.819000 389.726227,426.832062 389.419830,428.880493 
	C389.224304,430.187622 389.376892,431.546722 389.182220,432.854034 
	C387.245392,445.860504 388.073029,446.568390 400.734467,442.775208 
	C401.855499,442.439331 403.013611,442.317688 403.770905,441.286316 
	C404.834534,439.837769 405.056274,438.287445 403.108826,437.685944 
	C398.929413,436.395111 397.922363,432.054535 394.764587,428.975891 
M507.916016,480.943542 
	C505.052826,477.538696 500.750824,481.726074 497.097748,477.683258 
	C496.529358,483.221954 495.072296,487.391998 495.654572,491.940399 
	C498.170074,492.497833 501.253479,491.701660 502.458771,494.316620 
	C503.339508,496.227417 504.232635,497.013428 506.142120,496.469635 
	C508.043915,495.928070 508.640900,494.390961 508.608978,492.590759 
	C508.544189,488.937836 508.415283,485.286072 507.916016,480.943542 
M484.870697,321.481720 
	C484.208801,321.452698 483.542480,321.359314 482.885742,321.404877 
	C477.928558,321.748871 475.226685,324.419708 475.379333,328.788849 
	C475.534943,333.242096 477.536713,334.750061 483.179047,334.661285 
	C486.760010,334.604919 491.035889,334.323792 491.961182,330.569214 
	C493.053558,326.136658 489.296448,323.558472 484.870697,321.481720 
M337.398407,310.290588 
	C337.750275,311.690247 338.467712,313.251923 340.020569,312.115356 
	C341.934113,310.714752 341.909210,308.276031 341.420380,306.128998 
	C340.999664,304.280945 339.352966,304.291565 337.777496,304.375671 
	C336.347778,304.451935 335.092010,305.984619 333.526978,304.877167 
	C332.038696,303.738770 334.028534,301.029510 331.506042,300.344727 
	C328.706818,304.844055 328.706818,304.844055 336.040314,324.863678 
	C337.983002,322.431213 341.174866,320.474884 335.974213,318.157227 
	C334.052216,317.300720 333.622253,309.477142 335.354858,308.231323 
	C336.508728,307.401703 337.011597,308.603180 337.398407,310.290588 
M381.008606,254.501877 
	C383.669800,252.261856 383.385437,249.649200 381.873993,246.961716 
	C380.913147,245.253235 379.628571,243.708694 378.817535,241.940079 
	C378.225098,240.648239 377.829651,239.427490 376.139679,239.641144 
	C374.675659,239.826248 373.532135,240.815353 373.448242,242.164703 
	C373.309967,244.388672 371.902985,246.092133 371.305847,248.274796 
	C374.332489,248.865082 376.014191,250.573166 376.281006,253.604004 
	C376.608948,257.329590 378.412140,256.652039 381.008606,254.501877 
M500.803467,319.064484 
	C500.210144,319.853790 499.432159,320.565155 499.059753,321.447662 
	C498.115082,323.686401 497.491211,326.302826 500.004669,327.692383 
	C503.048096,329.374939 506.558685,329.524963 509.349518,327.078217 
	C511.546539,325.152008 511.104645,322.372650 509.705017,320.194275 
	C507.645142,316.988312 504.341919,318.634003 500.803467,319.064484 
M447.500885,317.210846 
	C447.463257,319.302460 446.523407,321.884125 448.902863,323.066223 
	C451.838654,324.524719 455.014069,323.868195 456.976624,321.305481 
	C458.589050,319.200012 460.694733,316.189423 458.637939,313.691986 
	C456.474548,311.065063 453.289734,311.799835 450.600006,313.805603 
	C449.540497,314.595673 448.325867,315.195740 447.500885,317.210846 
M361.297913,132.008331 
	C357.669769,131.964920 354.418701,131.322693 353.811462,126.976593 
	C348.336090,128.274841 345.118225,131.842194 345.268646,136.320984 
	C349.663849,136.764328 350.177795,132.213211 353.084167,129.933990 
	C355.279602,134.163742 361.234009,134.719299 361.635590,140.348083 
	C361.688751,141.092987 362.800629,141.539963 363.700409,141.233917 
	C364.553345,140.943802 365.370789,140.003189 364.842773,139.370956 
	C363.104218,137.289322 364.838715,133.803619 361.297913,132.008331 
M442.996979,313.632446 
	C445.852722,310.337250 443.326660,308.113434 441.234192,306.117523 
	C439.879181,304.824951 438.026093,303.517395 435.954773,305.207642 
	C433.702118,307.045898 433.673187,313.911377 436.213654,316.252716 
	C439.239136,319.041046 440.734436,315.669556 442.996979,313.632446 
M478.523071,265.853912 
	C478.601990,261.954437 476.928650,258.154205 478.511047,253.717743 
	C472.959167,254.498886 470.759674,258.556549 466.271667,261.343109 
	C474.198425,262.060852 475.251190,263.598877 474.993073,270.613800 
	C477.238708,270.053040 477.363708,267.943298 478.523071,265.853912 
M418.931580,34.351734 
	C420.250854,34.720444 421.523346,34.588585 422.792389,34.080589 
	C424.266876,33.490341 426.302277,33.503735 426.460114,31.369720 
	C426.621490,29.188137 424.240417,29.855881 423.360413,28.958651 
	C420.513336,26.055817 416.543671,30.311596 413.998535,26.794737 
	C412.265594,30.100885 410.362488,32.919086 413.436188,36.428894 
	C414.097534,33.499310 415.982666,33.371902 418.931580,34.351734 
M462.316864,320.431641 
	C461.185242,323.625336 462.991364,324.895966 465.666931,325.766388 
	C467.837128,326.472351 469.701691,326.958252 471.218658,324.479462 
	C473.087830,321.425201 472.977814,318.706726 469.938690,316.778137 
	C466.314911,314.478516 464.132233,316.594391 462.316864,320.431641 
M356.197205,143.474731 
	C355.270569,141.287811 355.983704,138.246185 352.832031,137.073593 
	C353.934265,139.501450 354.916107,141.596527 353.116455,144.267975 
	C351.956604,145.989639 353.700684,147.018738 355.525940,147.578842 
	C357.388947,148.150543 359.738434,148.093750 360.984528,150.632217 
	C357.423553,151.553619 354.024109,152.411560 353.568634,157.483841 
	C358.013855,156.906189 360.098145,153.435333 363.054291,151.527969 
	C364.170532,150.807739 365.070312,149.672867 364.376099,148.151505 
	C363.615295,146.484375 362.290497,146.216644 360.656891,146.821533 
	C358.114685,147.762802 356.431183,147.189880 356.197205,143.474731 
M358.267792,392.971283 
	C357.829254,395.944031 359.316772,398.406494 360.451569,400.937469 
	C361.196289,402.598541 362.392456,403.232056 363.853882,401.635376 
	C365.338013,400.013824 364.968994,388.897247 362.902710,386.437531 
	C362.379578,389.396484 359.434540,389.889282 358.267792,392.971283 
M345.249084,148.841904 
	C343.760986,149.539398 342.190918,150.119888 341.271301,151.570999 
	C340.924103,153.114456 343.159698,153.525589 342.666809,155.139328 
	C341.111420,157.902435 336.688660,158.560852 336.509705,162.543198 
	C337.627441,163.210907 338.884094,162.979599 339.065765,162.493561 
	C340.542725,158.542725 344.092773,157.407410 347.394592,155.724884 
	C349.002350,154.905609 349.745056,152.912796 349.498657,150.973175 
	C349.237000,148.913101 347.789642,148.320419 345.249084,148.841904 
M493.150909,57.008186 
	C495.117554,57.984642 492.665741,60.336731 494.842194,61.528305 
	C498.382263,61.778561 498.971405,59.498924 498.468628,56.435963 
	C498.280731,55.291168 489.574524,48.227520 488.470642,48.348885 
	C487.615112,48.442940 487.031921,49.107967 486.909821,50.138916 
	C487.827820,51.254364 489.351807,48.644672 490.144928,50.596706 
	C491.040924,52.604248 486.815002,56.533764 493.150909,57.008186 
M338.136353,330.101898 
	C337.065247,332.322693 336.819611,334.762329 338.232849,336.697479 
	C339.773651,338.807343 336.409821,342.666565 339.801544,343.056488 
	C342.987427,343.422791 341.178314,338.643677 343.515472,336.984680 
	C345.030334,335.909393 345.331970,333.501587 343.078735,332.527893 
	C340.846436,331.563354 341.365112,329.325531 340.419891,327.427521 
	C339.522186,328.365326 338.972137,328.939911 338.136353,330.101898 
M365.482147,369.739868 
	C365.251129,371.565948 366.443329,372.793121 367.330292,374.152679 
	C368.384705,375.768860 369.566620,377.094360 371.733917,376.002899 
	C373.130585,375.299530 375.298523,375.364990 375.502380,373.349060 
	C375.709747,371.298370 373.696259,370.948517 372.317627,370.121033 
	C371.519226,369.641846 370.972382,368.748627 370.299561,368.054077 
	C368.189453,365.875793 366.630707,366.306366 365.482147,369.739868 
M334.985565,123.441467 
	C332.583588,123.147095 330.470703,123.702095 328.703430,125.581223 
	C330.032959,126.296700 331.202240,127.115311 331.921631,128.856506 
	C333.628845,125.381706 336.945557,126.124687 339.595825,125.144188 
	C342.354889,124.123436 345.361176,122.789589 346.982269,117.840370 
	C344.122589,120.857903 343.229736,117.335739 341.582458,117.973427 
	C339.350189,119.848984 339.757751,124.028221 334.985565,123.441467 
M321.965851,273.623260 
	C319.722382,277.539337 320.968628,281.603851 325.290619,284.466858 
	C329.605865,279.270844 328.768372,275.799103 321.965851,273.623260 
M297.645172,278.891266 
	C297.645172,275.629669 297.645172,272.368073 297.645172,268.783966 
	C291.838318,272.041565 291.746887,277.780731 296.837585,282.937653 
	C297.649628,281.976166 297.585754,280.800507 297.645172,278.891266 
M369.385071,350.620819 
	C369.501740,347.498871 371.963196,344.373627 368.653320,340.997467 
	C368.580536,345.646698 362.962524,348.501556 364.736328,353.903534 
	C367.306946,354.054047 368.378937,352.906097 369.385071,350.620819 
M321.077484,155.271927 
	C324.004486,155.232407 327.208191,153.991989 329.150635,157.559280 
	C331.050537,155.739624 331.069489,154.240234 329.381073,152.376144 
	C324.666504,155.289337 319.104340,148.464432 313.889984,154.447449 
	C316.588989,153.460312 318.360565,154.797485 321.077484,155.271927 
M369.137939,316.491577 
	C369.065277,318.665771 370.044281,318.746399 371.414307,317.525452 
	C372.607971,316.461670 373.488556,314.882355 375.282867,315.525970 
	C377.149536,316.990051 374.276276,319.258850 376.675873,320.620728 
	C378.993988,319.781494 379.308868,317.875519 378.543396,315.931213 
	C377.229706,312.594482 374.431122,311.547302 370.980988,311.656464 
	C370.412262,313.203552 369.908813,314.573090 369.137939,316.491577 
M416.060852,432.423340 
	C414.477966,433.315216 412.755341,434.226379 412.865662,436.337402 
	C412.929077,437.550934 414.028046,438.451721 415.239166,438.475250 
	C418.294861,438.534576 421.198639,438.041656 423.592926,434.628632 
	C420.522400,434.790619 419.153870,432.369812 416.060852,432.423340 
M536.782654,473.899536 
	C539.014099,475.750610 541.800293,476.241547 543.047913,473.535034 
	C544.417969,470.563080 541.612305,468.671997 539.350098,466.660645 
	C537.424377,468.719116 534.826477,470.069336 536.782654,473.899536 
M518.692688,474.945862 
	C520.483765,477.737762 523.148376,478.606506 525.803650,476.893616 
	C527.674194,475.686890 526.185547,473.575836 525.392334,472.034210 
	C524.629639,470.552032 523.125183,470.184601 521.582275,470.424683 
	C519.439453,470.758209 518.734741,472.358612 518.692688,474.945862 
M354.260071,315.856476 
	C353.508514,318.323486 352.756989,320.790497 351.781372,323.993073 
	C358.605560,322.833374 355.980743,316.256226 359.129883,313.504639 
	C359.983063,312.759125 358.968018,311.012299 356.734161,311.089905 
	C356.058746,312.347717 355.294861,313.770294 354.260071,315.856476 
M307.546326,141.694565 
	C308.773010,139.877762 310.823761,138.575790 311.382477,135.761993 
	C307.673889,136.287827 305.935760,133.117798 302.704895,132.300705 
	C304.162170,135.597382 304.543274,139.212616 307.546326,141.694565 
M468.084991,330.405853 
	C466.488464,330.436798 464.603790,329.863373 463.765167,331.843201 
	C463.171509,333.244751 463.858154,334.471222 465.111633,335.196198 
	C466.952118,336.260742 468.846588,337.538940 471.106049,336.536316 
	C472.413727,335.956116 472.530304,334.746155 471.802338,333.626221 
	C471.012817,332.411560 470.405090,330.961151 468.084991,330.405853 
M382.473083,270.472870 
	C385.305573,267.983124 388.324707,265.668518 390.893463,262.931274 
	C392.220825,261.516846 393.754242,259.774292 393.567871,256.335449 
	C390.362915,260.714386 386.916473,263.493622 383.384583,266.159851 
	C381.980713,267.219666 381.468170,268.348846 382.473083,270.472870 
M350.322784,259.286224 
	C350.281311,260.326019 350.298767,261.509918 351.722717,261.327362 
	C353.110168,261.149506 353.747467,260.035034 353.151154,258.747437 
	C351.362915,254.886353 354.493683,254.340408 356.747498,253.098221 
	C357.837769,252.497314 359.534637,253.391129 360.161835,251.700531 
	C359.827515,250.320602 359.063049,249.939377 357.619049,250.030426 
	C352.132629,250.376297 351.435638,254.565018 350.322784,259.286224 
M457.416260,332.365570 
	C460.137787,331.596313 461.642365,329.860321 459.817871,327.339294 
	C457.301178,323.861786 455.122223,326.971588 452.756500,327.945190 
	C453.483185,330.294373 454.895721,331.526917 457.416260,332.365570 
M348.438660,301.450806 
	C348.336090,302.757385 348.054230,304.140228 348.894379,305.270386 
	C350.022064,306.787354 351.714294,306.827728 353.369629,306.494263 
	C354.560791,306.254303 354.996857,305.173431 354.570221,304.215363 
	C353.458466,301.718781 352.511017,298.642029 348.438660,301.450806 
M329.483673,139.817871 
	C328.381683,141.037979 325.976685,141.693863 327.336060,144.034851 
	C328.148376,145.433746 329.655640,145.989075 331.179474,145.342972 
	C332.890137,144.617615 333.327179,142.794937 333.353424,141.239410 
	C333.390778,139.023972 331.568939,139.400253 329.483673,139.817871 
M369.388580,274.745575 
	C368.736542,274.784760 368.046967,274.979401 367.439728,274.832886 
	C365.860016,274.451752 364.106171,272.137085 362.802063,274.737335 
	C361.823822,276.687836 361.917999,278.959137 364.917389,280.479218 
	C364.601593,276.949677 366.137299,275.997131 369.192657,277.018463 
	C370.454865,277.440369 371.567993,276.731567 371.649109,275.310303 
	C371.720337,274.062073 370.809235,274.165497 369.388580,274.745575 
M405.753082,278.536224 
	C408.302734,278.484222 409.742981,276.933319 410.968811,275.151123 
	C410.077118,273.554901 408.884430,272.856354 407.567474,272.960480 
	C405.455017,273.127533 403.984924,274.557983 403.220062,276.417664 
	C402.574249,277.987885 403.973511,278.265472 405.753082,278.536224 
M320.101349,113.282280 
	C321.978729,114.251801 321.465912,116.618881 322.885895,118.858391 
	C324.000824,113.519218 320.424011,109.565773 323.209259,104.089760 
	C318.751831,107.135612 319.193665,109.945312 320.101349,113.282280 
M511.054535,374.530853 
	C512.213074,374.671600 513.388855,374.719238 514.336487,373.924927 
	C515.593384,372.871307 517.161438,371.690948 515.721252,369.886261 
	C514.484009,368.335907 512.654663,368.300812 511.625000,370.040161 
	C510.902496,371.260742 506.385803,371.779114 511.054535,374.530853 
M363.746124,302.670685 
	C367.919495,300.042969 369.275391,296.573181 366.891541,292.069244 
	C366.951019,296.687500 361.983551,298.146027 363.746124,302.670685 
M561.072083,469.022247 
	C562.494690,470.554504 564.112976,471.073303 565.723694,469.459625 
	C567.252747,467.927704 566.169922,466.436401 565.243896,465.076111 
	C564.566589,464.081116 563.640503,463.296265 562.359009,463.841736 
	C560.162842,464.776642 560.638733,466.702545 561.072083,469.022247 
M347.541382,323.000702 
	C347.053589,321.017090 349.512634,318.713379 346.867035,316.686066 
	C344.180481,318.463837 343.831726,321.098358 344.367462,323.604462 
	C344.945221,326.307098 346.304932,325.715668 347.541382,323.000702 
M452.644928,40.146961 
	C452.489075,38.763851 453.127960,36.897606 450.973145,36.594044 
	C449.392426,36.371365 448.585327,37.482113 448.320251,38.934891 
	C448.015625,40.604778 448.736206,41.938232 450.145325,42.669952 
	C451.957458,43.610977 452.445129,42.330185 452.644928,40.146961 
M348.595367,347.813538 
	C347.720642,345.026794 350.711548,342.812744 349.924744,339.717529 
	C345.046295,340.069641 346.767365,344.056305 345.979034,346.401855 
	C345.387451,348.161896 346.362671,348.910767 348.595367,347.813538 
M343.725677,165.215439 
	C347.547699,167.983795 347.897705,163.179382 350.766541,162.610443 
	C346.670990,159.554718 344.943939,161.320740 343.725677,165.215439 
M429.150574,30.579550 
	C430.603546,35.168839 433.297943,33.605614 436.000458,32.140007 
	C434.100250,30.284777 432.269379,28.340603 429.150574,30.579550 
M336.444458,137.862152 
	C337.027679,138.757004 337.704071,139.411407 339.506104,138.492096 
	C338.278198,136.431351 339.470276,133.717560 337.644928,131.392746 
	C334.112152,132.833649 334.495911,134.907623 336.444458,137.862152 
M507.709686,474.539795 
	C507.184265,471.753601 505.814575,471.339874 503.519989,472.911224 
	C502.017578,473.940094 501.270782,475.161591 502.751465,476.511261 
	C504.858734,478.432037 506.316223,476.906677 507.709686,474.539795 
M478.925446,48.840237 
	C479.700287,47.980946 480.613953,47.145111 479.309570,45.814182 
	C476.742767,46.143768 474.160858,46.450031 474.028534,50.047432 
	C475.815399,51.145622 477.200592,50.549759 478.925446,48.840237 
M345.193054,355.724274 
	C341.450958,356.545776 341.934113,359.183899 342.202301,362.206207 
	C345.560272,360.973633 347.243683,359.348022 345.193054,355.724274 
M327.498749,296.024445 
	C331.259430,299.791321 331.869598,295.299652 333.596710,293.658417 
	C331.369080,293.631714 328.737915,292.023499 327.498749,296.024445 
M353.834564,277.107544 
	C354.369049,278.529388 355.119202,280.384094 356.772888,278.627686 
	C358.733215,276.545624 357.573303,274.571808 355.681976,272.969910 
	C354.060242,273.860687 354.184204,275.296906 353.834564,277.107544 
M360.001434,373.564117 
	C357.660736,370.086517 355.377930,372.925476 352.210358,373.289124 
	C355.118042,375.830933 357.341339,374.874359 360.001434,373.564117 
M322.510498,132.567062 
	C319.909180,132.787704 318.442017,134.697601 317.750885,136.731674 
	C317.219238,138.296478 318.999176,138.958267 320.709290,139.334351 
	C320.309540,136.756134 321.370758,134.807693 322.510498,132.567062 
M358.642517,426.310181 
	C361.938812,425.140289 361.766113,423.297028 359.677063,420.727753 
	C357.492493,422.248718 354.820557,423.261169 358.642517,426.310181 
M345.173676,262.277710 
	C342.152496,263.845947 342.233002,264.991791 345.648651,268.153503 
	C347.377930,266.291504 346.526123,264.502991 345.173676,262.277710 
M346.455261,113.732895 
	C348.642639,114.935196 350.827820,116.869453 353.269440,113.949898 
	C351.118866,111.064026 348.957214,113.129349 346.455261,113.732895 
M313.585632,147.808914 
	C314.519806,146.429031 315.369324,145.049042 313.640411,143.373886 
	C311.394928,144.813873 310.350555,146.527588 310.616608,148.936584 
	C311.877991,149.364288 312.509247,148.812134 313.585632,147.808914 
M489.005554,338.470367 
	C487.794952,339.517609 486.467621,340.504700 486.902435,342.455719 
	C489.145630,344.001984 490.208160,342.337097 491.114563,340.839172 
	C492.036926,339.314789 491.391571,338.398560 489.005554,338.470367 
M343.061676,296.097839 
	C341.000824,295.862732 339.091827,295.966492 338.083038,298.242432 
	C342.004028,300.120209 342.004028,300.120209 343.061676,296.097839 
M383.599396,280.927063 
	C386.250824,279.672455 384.515076,278.549805 383.332855,277.836060 
	C380.265228,275.984161 380.735596,279.419708 378.251404,280.636871 
	C380.722961,280.809021 381.859802,280.888184 383.599396,280.927063 
M338.924774,282.813538 
	C339.594513,283.461151 340.571899,284.685791 341.100159,283.173676 
	C341.687042,281.493713 342.153351,279.249542 339.448822,278.520660 
	C337.969452,279.697723 338.390442,281.016785 338.924774,282.813538 
M376.567841,297.589996 
	C377.612854,299.698456 379.166840,299.664490 381.018616,298.814697 
	C379.444763,294.108215 379.376953,294.082672 376.567841,297.589996 
M329.278900,98.365990 
	C328.289612,97.639687 327.574280,96.448326 325.341614,96.406570 
	C326.976746,97.701729 327.179840,99.151794 327.709808,100.471817 
	C328.032806,101.276329 328.883484,101.807770 329.725647,101.272240 
	C330.883911,100.535683 330.339417,99.611046 329.278900,98.365990 
M468.464539,40.017723 
	C467.771729,41.110134 466.680389,42.473183 468.707031,43.040440 
	C469.865204,43.364609 471.481262,42.765659 471.513947,41.068657 
	C471.549408,39.227932 470.858185,38.080048 468.464539,40.017723 
z"/>
<path fill="#000000" opacity="1.000000" stroke="none" 
	d="
M292.449982,545.000000 
	C290.099884,541.356140 286.744507,538.978821 283.928284,536.218689 
	C273.889252,526.379578 266.296326,514.750305 258.794586,503.033020 
	C251.680328,491.920990 243.676849,481.444519 238.288910,469.165649 
	C228.805573,447.553619 220.414795,425.600525 215.269058,402.568848 
	C211.624878,386.257965 206.134567,370.357605 204.231064,353.662140 
	C203.612366,348.235626 202.741516,342.786957 202.754593,337.350220 
	C202.779877,326.832550 200.668182,316.585571 199.233231,306.274017 
	C198.499023,300.997864 198.535858,295.701782 197.952225,290.433044 
	C196.822220,280.231689 196.986160,269.885803 196.661163,259.598328 
	C196.624893,258.450500 196.717621,257.235382 197.068954,256.155029 
	C197.481750,254.885620 198.225784,253.591431 199.939713,254.095718 
	C201.438690,254.536789 201.175827,255.828934 201.053497,256.990540 
	C199.372833,272.949829 201.974670,288.718536 203.105164,304.558655 
	C204.130524,318.925598 207.077957,333.069763 207.522705,347.527222 
	C207.749329,354.894867 209.360001,362.281036 210.932053,369.531525 
	C213.141479,379.721832 215.857849,389.803741 218.453217,399.907440 
	C218.943268,401.815155 219.880722,403.607910 220.805023,405.722290 
	C220.998337,405.990845 220.973907,405.952087 220.973907,405.952087 
	C221.119156,413.345551 224.123688,420.081818 226.124771,426.999817 
	C229.910263,440.086700 236.050644,452.278992 241.347229,464.802124 
	C249.176254,483.312897 261.277252,498.963440 272.406982,515.368713 
	C278.570068,524.453186 286.504425,531.622864 293.858582,539.452637 
	C295.743530,541.459534 298.341064,542.797241 300.805603,544.721191 
	C298.299988,545.000000 295.599976,545.000000 292.449982,545.000000 
z"/>
<path fill="#000000" opacity="1.000000" stroke="none" 
	d="
M319.444153,545.000000 
	C318.258514,541.266357 320.969666,541.311646 323.441040,540.606628 
	C337.676636,536.545471 352.583710,534.285217 365.021759,525.292236 
	C367.048523,523.826843 368.410492,521.166626 371.903046,521.161438 
	C371.606506,525.412842 367.985535,527.056335 365.752319,529.003784 
	C360.362030,533.704285 353.601044,536.215332 346.747009,538.298889 
	C340.289673,540.261841 333.883911,542.394409 327.227722,544.726135 
	C324.629425,545.000000 322.258881,545.000000 319.444153,545.000000 
z"/>
<path fill="#000000" opacity="1.000000" stroke="none" 
	d="
M221.012115,406.009064 
	C222.342209,399.114197 219.934937,392.568359 218.840622,385.936920 
	C215.227951,364.044220 210.643707,342.332275 210.462540,319.948914 
	C210.386169,310.514709 209.178009,301.097076 210.262985,291.627197 
	C210.547775,289.141510 211.985687,286.959808 211.729843,284.346954 
	C211.589691,282.915588 211.708405,280.888855 213.914749,281.348022 
	C215.838531,281.748322 215.457092,283.669861 215.238037,285.131012 
	C214.673370,288.897095 213.599411,292.635529 213.473663,296.409851 
	C213.031082,309.692627 214.304367,322.914612 215.133301,336.161835 
	C215.952362,349.251617 218.360046,362.104034 220.687271,374.906067 
	C222.694565,385.947998 222.716370,397.343292 226.415390,408.092072 
	C227.003754,409.801727 228.487122,412.416046 225.568832,413.126190 
	C222.551666,413.860413 223.238281,410.674164 222.538559,409.035034 
	C222.155930,408.138794 221.786270,407.236969 221.192337,406.144897 
	C220.973907,405.952087 220.998337,405.990845 221.012115,406.009064 
z"/>
<path fill="#000000" opacity="1.000000" stroke="none" 
	d="
M212.131943,215.930054 
	C208.843033,227.971344 208.352066,239.868408 208.295410,251.858322 
	C208.227066,266.321594 208.930267,280.792145 208.017776,295.248352 
	C207.917465,296.837555 208.006927,298.647308 204.907303,299.534973 
	C203.892365,282.785950 204.584305,266.337524 204.192215,249.964417 
	C203.608795,225.599854 210.160522,202.447556 219.073395,179.023743 
	C222.153595,182.198776 221.158356,184.504532 220.599472,186.872025 
	C218.309723,196.571899 214.073151,205.700089 212.131943,215.930054 
z"/>
<path fill="#000000" opacity="1.000000" stroke="none" 
	d="
M363.799957,541.928894 
	C358.231384,539.589783 362.774231,537.327942 364.138275,536.720398 
	C368.963135,534.571533 371.994629,530.210999 376.555878,527.717346 
	C387.694153,521.627991 390.700714,510.908386 391.658264,499.234924 
	C391.955231,495.614410 392.345184,492.000458 392.759674,488.391205 
	C392.926300,486.940460 393.632416,485.907959 395.700745,486.046112 
	C397.757416,490.507629 395.380981,494.994690 395.201050,499.417725 
	C394.891205,507.035370 393.278137,514.480896 389.382812,521.273193 
	C386.986420,525.451782 383.415283,528.282654 379.570709,530.939941 
	C374.394073,534.518005 369.288635,538.198975 363.799957,541.928894 
z"/>
<path fill="#000000" opacity="1.000000" stroke="none" 
	d="
M232.908386,432.974609 
	C230.235184,427.836243 227.976624,422.941681 226.918350,417.250092 
	C229.773621,417.123718 230.184052,419.375946 230.891006,420.667450 
	C233.680573,425.763519 236.065674,431.081879 239.509186,435.807800 
	C240.510284,437.181732 240.756775,438.859833 239.361038,439.790222 
	C237.665894,440.920197 236.718735,439.303314 235.926636,437.993347 
	C234.981354,436.429932 234.042877,434.862427 232.908386,432.974609 
z"/>
<path fill="#000000" opacity="1.000000" stroke="none" 
	d="
M469.263000,28.125708 
	C469.204010,30.049040 469.215210,31.612991 467.155518,31.834364 
	C465.643188,29.172333 465.643188,29.172333 466.353058,25.573772 
	C468.374817,24.823547 468.908020,26.124800 469.263000,28.125708 
z"/>
<path fill="#000000" opacity="1.000000" stroke="none" 
	d="
M507.283295,165.501526 
	C506.049652,167.522766 506.287201,169.274628 506.882080,171.082733 
	C507.481171,172.903564 507.160034,174.360245 504.972137,174.880386 
	C503.102325,174.020981 502.849701,171.991272 501.789276,170.572647 
	C500.892944,169.373550 499.965515,167.441391 498.529785,167.851456 
	C495.116516,168.826248 493.623474,165.788406 491.339020,165.105362 
	C484.196106,162.969589 479.528137,155.717438 471.420227,155.891861 
	C469.909119,155.924362 468.695099,154.834656 467.479431,153.914139 
	C464.080627,151.340622 460.064667,151.322449 456.052429,151.360062 
	C453.381470,151.385101 450.761780,151.403076 448.545258,149.410461 
	C444.988373,146.212936 442.791138,146.521149 439.841400,150.374527 
	C438.762787,151.783554 438.571442,153.895554 436.231171,154.674713 
	C434.188385,152.073807 431.715942,150.891983 428.409698,153.116394 
	C426.261871,154.561417 424.904724,155.978729 425.733032,158.811050 
	C426.354248,160.935165 427.540466,164.229462 424.589325,164.696030 
	C421.622498,165.165085 421.931580,161.638458 421.571136,159.430725 
	C421.521729,159.128082 421.342468,158.846649 421.217010,158.557770 
	C417.851593,161.798279 414.010193,164.718826 415.295441,170.379929 
	C415.795349,172.581985 416.368622,174.447708 418.419708,175.732910 
	C427.251312,181.266800 440.098236,176.203262 442.751831,166.217743 
	C443.640289,162.874512 446.080872,161.169357 449.670654,161.707184 
	C451.819305,162.029129 465.088196,159.001846 467.145386,157.438583 
	C469.033783,160.452271 471.256989,162.004135 473.714996,157.224991 
	C475.696350,160.429520 477.176697,163.410492 480.292175,164.874939 
	C480.658905,165.047333 481.136414,165.854233 481.020874,166.054733 
	C478.415894,170.573761 482.664795,172.756729 484.687256,175.024384 
	C487.831146,178.549454 487.354218,182.388367 487.274902,186.272552 
	C487.215271,189.192200 485.370758,189.878647 482.762878,188.714417 
	C476.527100,185.930603 469.894928,186.603226 463.420685,186.954773 
	C458.655975,187.213501 453.926544,188.433090 449.227264,189.438858 
	C447.274200,189.856857 445.751282,189.491577 445.150452,187.709930 
	C444.373749,185.406815 446.197754,184.900833 447.956604,184.674301 
	C450.974030,184.285660 452.400238,182.322235 453.626373,179.726807 
	C455.516632,175.725677 458.106354,172.300629 462.852264,171.591843 
	C464.268921,174.193558 461.433502,175.921417 462.879425,177.850113 
	C464.012878,178.629532 464.825989,177.911636 465.551880,177.268402 
	C468.608215,174.559998 470.596344,176.130508 472.409088,178.848969 
	C475.282898,183.158707 476.295349,183.457672 482.375854,181.698257 
	C480.327637,176.027786 476.405518,171.182419 471.169952,169.924118 
	C456.537048,166.407257 445.870941,171.629181 442.166901,187.630035 
	C438.541595,185.132217 440.328339,182.352127 439.658142,180.040665 
	C437.685272,179.857956 436.080017,180.409317 435.554810,182.532013 
	C435.083557,184.436508 435.409546,186.247437 437.280853,187.326981 
	C441.328766,189.662201 442.383606,195.131271 447.304199,196.677841 
	C448.567139,197.074783 448.556458,198.983505 447.623047,200.183441 
	C446.673340,201.404312 445.126068,201.636078 444.050751,200.734039 
	C442.157104,199.145493 440.139160,197.447250 438.931366,195.356918 
	C436.913086,191.863770 434.402740,191.525909 431.117493,193.007217 
	C430.510132,193.281067 429.912323,193.587875 429.283112,193.799149 
	C427.472595,194.407074 425.523468,194.827866 424.372345,192.858109 
	C423.092712,190.668304 425.641602,190.272614 426.590820,189.031769 
	C424.114197,186.213821 421.408661,188.326492 418.845551,188.671097 
	C417.380066,188.868134 415.621216,189.741348 415.125366,187.653046 
	C414.597839,185.431366 416.411163,184.997147 418.167084,184.659348 
	C420.049500,184.297195 421.895386,183.745178 423.884216,183.244034 
	C422.866302,181.657623 421.458740,181.560120 420.287140,181.023743 
	C411.497711,176.999908 409.426361,172.843170 411.258514,163.147156 
	C412.075897,158.821579 411.133759,154.171707 414.374146,150.315094 
	C417.847321,146.181381 419.763062,145.873291 423.696960,150.010269 
	C424.901550,145.865936 426.034668,141.967575 427.144379,138.149673 
	C430.018616,137.273788 430.044647,140.692551 432.398102,141.101288 
	C434.530975,139.254379 437.121948,137.526093 438.106110,134.173294 
	C435.768433,132.707718 432.898743,131.946472 431.842010,128.646454 
	C435.311890,127.095131 438.672882,127.440880 442.018341,128.210709 
	C447.073456,129.373932 444.848022,133.596619 445.355011,136.605911 
	C445.612640,138.135101 443.391846,140.703522 446.385223,140.959915 
	C449.864410,141.257950 447.338379,137.942307 447.945679,136.579132 
	C450.329834,136.237930 451.383087,139.110947 453.858673,138.210327 
	C452.756622,136.740662 451.806519,135.263611 450.640503,133.983139 
	C449.657013,132.903122 446.853760,132.752472 448.305054,130.517212 
	C449.506195,128.667236 451.676636,127.935196 454.059875,128.622467 
	C455.055267,128.909515 456.049744,129.192581 456.463562,130.202179 
	C459.190216,136.854141 465.336761,138.060730 471.296631,139.402863 
	C473.600616,139.921692 475.168396,141.071472 476.495789,142.897614 
	C477.162811,143.815292 478.035614,145.084305 478.964050,145.227036 
	C483.757721,145.963959 485.139069,148.306442 482.045654,153.589111 
	C487.980377,151.051453 492.651245,150.282547 495.529846,156.195908 
	C495.978119,157.116730 497.034424,157.200424 498.165833,157.023499 
	C502.883118,156.285767 507.458710,155.377792 509.772369,150.702103 
	C511.921326,150.945862 510.890930,153.708023 512.848938,153.745361 
	C515.377014,152.834335 513.727356,149.095657 516.630554,148.220947 
	C519.012512,149.981384 518.358521,152.052841 517.509277,154.337173 
	C515.644043,159.354462 511.099670,161.827805 507.283295,165.501526 
z"/>
<path fill="#000000" opacity="1.000000" stroke="none" 
	d="
M518.375977,145.906464 
	C517.483093,146.017532 516.653442,146.164459 516.265686,145.817566 
	C510.466400,140.629105 503.536438,139.806412 496.217743,140.582397 
	C493.263794,140.895599 491.077026,140.153778 489.876465,137.022141 
	C492.569885,134.721802 495.672089,135.818344 498.488037,135.726730 
	C504.355652,135.535812 510.043945,136.474106 515.218384,139.513824 
	C518.164856,141.244705 520.559326,140.138199 523.802673,137.259979 
	C516.349609,136.539001 511.517670,131.029205 504.358398,131.245010 
	C496.759277,131.474075 489.140808,131.160065 481.842438,128.538620 
	C478.906311,127.484001 476.391907,126.160202 477.186523,122.661438 
	C493.847504,127.076401 511.253510,126.443787 527.223206,132.961807 
	C528.543335,133.522812 527.098145,134.795197 527.288147,135.998398 
	C529.257202,137.580185 532.088501,135.627335 534.258240,138.425369 
	C529.407471,141.803268 522.967407,141.729340 518.375977,145.906464 
z"/>
<path fill="#000000" opacity="1.000000" stroke="none" 
	d="
M487.818970,197.230194 
	C485.473083,201.671646 482.522614,203.863113 477.527374,202.753723 
	C475.746155,202.358154 473.666107,203.308319 471.557098,203.672775 
	C472.246429,205.252533 474.561859,206.704361 471.999084,208.182251 
	C470.002441,209.333679 467.491913,210.631226 465.578186,208.821167 
	C463.726654,207.069992 466.653320,205.907883 467.234161,204.792862 
	C462.817200,201.810455 456.429352,205.852325 452.660217,200.049561 
	C454.853455,198.135330 457.083130,198.760391 459.116486,198.694382 
	C465.222168,198.496155 471.424286,199.397690 477.266937,196.642349 
	C479.072479,195.790878 480.884399,195.125458 482.345337,193.626877 
	C483.652100,192.286438 485.002625,189.888565 487.234924,191.310135 
	C489.150360,192.529953 488.203552,194.917496 487.818970,197.230194 
z"/>
<path fill="#000000" opacity="1.000000" stroke="none" 
	d="
M373.650513,114.291565 
	C372.437714,109.453171 369.385864,109.083382 365.643646,110.528847 
	C365.544586,104.392494 365.841003,103.910339 370.818481,101.699211 
	C372.974060,102.256920 371.675568,104.720833 373.090393,105.792877 
	C375.046112,104.080322 376.007111,101.925461 376.774628,99.508484 
	C377.753662,96.425217 382.362701,95.712036 384.455322,98.107811 
	C385.221161,98.984604 385.450806,100.124107 384.723236,100.815254 
	C380.919983,104.428284 379.998230,109.088333 379.079529,113.987816 
	C378.298889,118.150902 375.977264,117.691460 373.650513,114.291565 
z"/>
<path fill="#000000" opacity="1.000000" stroke="none" 
	d="
M407.875977,133.263458 
	C413.167419,129.107986 417.873352,124.497139 424.986389,125.102974 
	C426.701660,133.542969 420.061798,136.455582 415.550903,140.639816 
	C414.675354,141.451996 413.235931,141.456146 412.399139,140.374176 
	C411.377136,139.052719 411.905151,137.737305 413.232452,137.015091 
	C415.348785,135.863541 417.018494,134.410492 418.060608,131.494614 
	C414.971436,132.276215 413.087952,133.935760 411.465424,136.007339 
	C410.510437,137.226608 410.045959,139.768677 408.006958,138.732422 
	C405.793182,137.607376 406.592926,135.394867 407.875977,133.263458 
z"/>
<path fill="#000000" opacity="1.000000" stroke="none" 
	d="
M438.300110,258.170349 
	C433.979431,256.627991 435.104218,253.303101 436.168610,251.076096 
	C437.492340,248.306458 439.386017,250.523651 440.921631,251.670944 
	C442.623138,252.942154 444.331635,253.053146 445.623108,251.143631 
	C446.782806,249.428879 448.464447,249.716354 450.073090,249.736877 
	C451.189301,249.751114 452.488464,249.644165 452.979279,251.056320 
	C453.408386,252.290894 452.910767,253.341415 452.065735,254.205688 
	C450.283234,256.028717 448.217316,257.222961 445.561798,257.378204 
	C443.268982,257.512299 440.991913,257.915131 438.300110,258.170349 
z"/>
<path fill="#000000" opacity="1.000000" stroke="none" 
	d="
M377.846649,218.643158 
	C378.256866,220.411026 377.346893,222.237823 379.919403,222.811523 
	C381.763916,223.222870 381.291565,224.835983 380.297485,225.937103 
	C379.423096,226.905624 378.119171,227.246948 377.308746,226.014542 
	C374.718079,222.074921 372.698730,217.842377 371.836884,213.165771 
	C371.577911,211.760620 372.097504,210.366348 373.702148,210.142624 
	C375.320679,209.916977 375.970001,211.109451 376.288208,212.556046 
	C376.713470,214.489288 377.237640,216.400787 377.846649,218.643158 
z"/>
<path fill="#000000" opacity="1.000000" stroke="none" 
	d="
M408.087952,196.860931 
	C404.259186,201.939636 398.454224,201.492172 395.314392,196.296722 
	C399.657623,193.489670 406.061218,193.563446 408.087952,196.860931 
z"/>
<path fill="#000000" opacity="1.000000" stroke="none" 
	d="
M399.852539,171.798004 
	C399.855621,170.439819 400.093140,168.750473 401.050110,169.261475 
	C404.316742,171.005814 408.060699,172.280136 410.055817,175.751862 
	C410.537933,176.590790 410.154358,177.718307 409.322784,178.442520 
	C408.239990,179.385483 407.232788,178.922195 406.161652,178.301926 
	C403.546600,176.787567 401.223267,175.004990 399.852539,171.798004 
z"/>
<path fill="#000000" opacity="1.000000" stroke="none" 
	d="
M382.360718,190.370972 
	C386.301178,192.298782 383.732391,194.181702 382.444489,195.408203 
	C380.893982,196.884735 378.675781,196.963028 377.285156,194.977936 
	C375.884216,192.978088 375.439636,190.649292 377.500854,188.720764 
	C379.765289,186.602081 380.918182,188.516190 382.360718,190.370972 
z"/>
<path fill="#000000" opacity="1.000000" stroke="none" 
	d="
M365.680115,92.768288 
	C367.838867,93.562645 370.428375,93.906380 369.719391,96.544693 
	C368.994965,99.240685 366.732086,97.430077 365.109528,97.429558 
	C364.618927,97.429405 364.127625,97.488541 363.637817,97.533089 
	C361.999146,97.682129 359.723328,100.483749 358.934540,97.006493 
	C358.251251,93.994270 361.014618,93.338089 363.301147,92.790939 
	C363.926971,92.641174 364.612030,92.739082 365.680115,92.768288 
z"/>
<path fill="#000000" opacity="1.000000" stroke="none" 
	d="
M502.202484,190.831436 
	C498.468384,188.175629 499.740295,184.905334 500.110046,181.710052 
	C502.651001,181.486496 504.887421,181.760727 505.124451,184.556503 
	C505.327759,186.954163 506.495270,190.063416 502.202484,190.831436 
z"/>
<path fill="#000000" opacity="1.000000" stroke="none" 
	d="
M384.924683,212.178223 
	C385.642792,213.060898 386.225403,213.807632 386.204132,214.536697 
	C386.140656,216.709412 387.311829,219.353439 384.593536,220.729874 
	C383.348999,221.360077 382.074219,220.458725 382.037598,219.237488 
	C381.958527,216.601547 379.951538,213.121902 384.924683,212.178223 
z"/>
<path fill="#000000" opacity="1.000000" stroke="none" 
	d="
M382.187225,148.120056 
	C380.962341,154.891617 378.676239,155.967758 374.058838,151.901093 
	C375.904449,149.708176 378.261078,148.423599 381.322998,147.627655 
	C381.682526,147.595230 382.017181,147.946854 382.187225,148.120056 
z"/>
<path fill="#000000" opacity="1.000000" stroke="none" 
	d="
M371.970032,201.883179 
	C371.265564,200.888260 370.664032,200.014328 370.630615,199.119202 
	C370.565826,197.384811 367.312897,195.114548 370.159973,194.220444 
	C372.856628,193.373596 373.567444,197.029572 374.507782,199.032745 
	C375.179688,200.464050 374.254700,201.873535 371.970032,201.883179 
z"/>
<path fill="#000000" opacity="1.000000" stroke="none" 
	d="
M408.155365,187.728210 
	C407.783234,184.283936 409.714691,184.058258 411.828217,184.874832 
	C413.881714,185.668259 413.711273,187.751663 412.707245,189.038696 
	C410.958099,191.280945 409.606232,189.333542 408.155365,187.728210 
z"/>
<path fill="#000000" opacity="1.000000" stroke="none" 
	d="
M374.640747,162.293396 
	C373.744049,160.245163 372.941254,158.210220 375.818268,157.997223 
	C377.673370,157.859863 379.002380,159.480148 378.891754,161.164719 
	C378.706177,163.991592 376.685608,163.254364 374.640747,162.293396 
z"/>
<path fill="#000000" opacity="1.000000" stroke="none" 
	d="
M460.751953,251.746216 
	C457.460205,251.580780 457.452637,249.634476 458.160065,247.546143 
	C458.506470,246.523605 459.660004,246.041107 460.637115,246.615341 
	C462.966034,247.983963 462.583984,249.771057 460.751953,251.746216 
z"/>
<path fill="#000000" opacity="1.000000" stroke="none" 
	d="
M386.851807,205.636978 
	C384.390533,205.694595 382.972717,204.686310 383.384308,202.444061 
	C383.610016,201.214310 384.992157,200.652969 386.186279,201.150269 
	C388.362793,202.056702 388.635162,203.612305 386.851807,205.636978 
z"/>
<path fill="#000000" opacity="1.000000" stroke="none" 
	d="
M525.599121,456.009460 
	C517.848206,459.268890 510.260834,457.927032 502.731873,457.036957 
	C500.631165,456.788666 499.242767,455.157440 498.888824,452.971069 
	C498.647186,451.478424 499.317139,449.989990 500.768646,449.946075 
	C503.139465,449.874268 506.395264,447.265778 507.707794,449.783173 
	C511.199005,456.479279 516.494629,453.524933 521.085144,452.773560 
	C524.594788,452.199066 527.867065,450.174438 531.244995,448.795166 
	C535.708801,446.972504 540.135864,447.269012 545.473999,448.708527 
	C542.365601,451.606964 546.387268,456.735809 540.924377,457.918030 
	C539.075073,458.318207 536.962402,458.983643 536.035828,456.597076 
	C536.403381,453.968872 539.144287,455.344360 539.913574,453.741821 
	C537.865540,450.898743 531.109436,451.901245 525.599121,456.009460 
z"/>
<path fill="#000000" opacity="1.000000" stroke="none" 
	d="
M540.872070,439.751221 
	C539.046021,442.643890 535.856262,442.515869 533.524780,444.017303 
	C532.864685,444.442383 531.861572,444.207123 531.295593,443.457611 
	C530.750122,442.735321 530.829834,441.906769 531.201782,441.117737 
	C532.410095,438.554321 538.157471,437.517731 540.872070,439.751221 
z"/>
<path fill="#000000" opacity="1.000000" stroke="none" 
	d="
M552.651489,425.037048 
	C556.930969,424.677399 555.763550,427.248810 554.958740,429.073517 
	C554.069031,431.090668 553.003967,433.604218 550.061829,432.898560 
	C548.337158,432.484924 548.686951,430.856445 549.365784,429.667450 
	C550.252380,428.114441 551.343384,426.678131 552.651489,425.037048 
z"/>
<path fill="#000000" opacity="1.000000" stroke="none" 
	d="
M483.340973,489.186768 
	C482.413635,489.486969 481.781830,489.684326 481.135132,489.794342 
	C479.587860,490.057495 477.717041,490.979584 477.138947,488.535492 
	C476.834534,487.248291 478.029480,487.038818 479.007385,486.796204 
	C481.571442,486.160065 483.000610,486.839172 483.340973,489.186768 
z"/>
<path fill="#000000" opacity="1.000000" stroke="none" 
	d="
M325.252502,201.826080 
	C321.453522,196.249054 319.191498,196.375519 315.621735,201.596558 
	C313.182068,205.164780 311.933105,208.414413 314.643768,212.505783 
	C315.964020,214.498489 316.056519,217.592041 313.249512,218.394638 
	C310.370819,219.217728 310.029846,216.234879 309.706696,214.183578 
	C308.949799,209.379532 307.300781,204.904587 305.325775,200.488693 
	C301.659668,192.291611 303.329254,188.880768 309.765228,181.914032 
	C313.916443,177.420456 320.138977,176.353348 326.198608,178.488358 
	C338.318970,182.758743 342.606964,192.557251 344.153290,204.036575 
	C344.515808,206.727905 346.160309,209.734467 344.350586,212.645203 
	C341.546265,212.465363 341.100403,210.466812 340.769714,208.493622 
	C340.579163,207.356628 340.767090,206.160706 340.634094,205.008698 
	C340.279968,201.941315 340.589294,197.753723 336.425873,197.732376 
	C332.628906,197.712906 331.940796,201.822693 331.501465,204.837341 
	C330.848053,209.320831 331.331665,213.629349 334.287628,217.605301 
	C335.968262,219.865906 338.761230,222.145370 337.383423,226.693192 
	C333.719452,224.145828 329.568726,223.466171 326.457001,220.642471 
	C323.370087,217.841324 322.588287,214.120270 324.438171,210.672546 
	C326.012695,207.737900 326.212250,205.124222 325.252502,201.826080 
M331.234894,194.386505 
	C332.731750,192.743286 332.411438,191.315491 331.149231,189.549423 
	C325.589813,181.770691 314.801331,182.078415 309.270935,189.399841 
	C306.695984,192.808670 307.392242,195.544571 310.409607,199.028183 
	C315.326843,190.050964 321.948212,190.354874 329.341888,194.858307 
	C329.675476,195.061493 330.283112,194.814667 331.234894,194.386505 
z"/>
<path fill="#000000" opacity="1.000000" stroke="none" 
	d="
M325.961914,234.006958 
	C328.128784,235.091003 331.518768,233.813339 331.738129,236.508759 
	C331.933807,238.913010 330.827698,242.034897 328.522919,243.245682 
	C326.384949,244.368851 323.513245,244.354507 321.021454,243.625748 
	C319.802551,243.269257 319.451324,241.755005 319.914856,240.666565 
	C321.101562,237.879791 321.788940,234.565094 325.961914,234.006958 
z"/>
<path fill="#000000" opacity="1.000000" stroke="none" 
	d="
M344.393280,60.425591 
	C343.037567,56.361992 344.908264,54.800320 348.397156,54.127571 
	C349.518372,60.632072 349.249359,64.423561 343.692596,64.805145 
	C342.042786,63.223114 342.906372,61.926525 344.393280,60.425591 
z"/>
<path fill="#000000" opacity="1.000000" stroke="none" 
	d="
M368.059326,49.092911 
	C365.669067,47.971989 365.087036,46.399525 366.657196,44.738083 
	C368.070160,43.242886 369.426636,44.508179 370.266235,45.664261 
	C371.831238,47.819115 370.762817,48.884739 368.059326,49.092911 
z"/>
</svg>