<svg version="1.1" xmlns="http://www.w3.org/2000/svg" width="200" height="200" viewBox="0 0 720 544">
<path fill="#0066ff" opacity="0.3" stroke="none" 
	d="M367.4,545 C370.5,542.6 374.6,541.9 378.5,540.7 C395.1,535.7 409.6,525.9 425.5,519.4 
	C428.2,518.3 430.0,516.0 432.2,514.3 C437.5,510.3 443.4,508.0 449.2,505.2 
	C457.2,501.3 459.6,493.1 461.5,485.3 C463.4,477.6 463.4,469.8 458.7,462.8 
	C458.3,462.3 458.3,461.5 458.3,460.8 C458.3,460.6 458.5,460.2 458.7,459.6 
	C462.8,459.6 463.5,463.0 464.3,465.7 C467.1,476.1 465.9,486.3 462.2,496.8 
	C465.4,496.4 466.3,493.7 467.0,492.1 C469.7,484.2 472.7,476.4 468.7,467.9 
	C466.6,463.4 465.5,458.5 463.5,453.9 C460.1,445.7 453.9,440.0 447.6,434.3 
	C442.7,429.9 437.8,433.5 434.4,435.9 C425.5,442.4 415.0,443.2 405.1,446.3 
	C392.7,450.1 379.8,450.8 366.9,451.4 C363.2,451.5 360.7,453.1 359.2,456.6 
	C356.2,463.9 353.3,471.1 353.3,479.1 C353.3,480.3 353.6,482.0 352.4,482.3 
	C345.5,484.3 347.6,490.4 346.4,495.0 C346.0,496.7 346.5,498.7 343.7,499.7 
	C341.3,495.1 343.5,490.6 344.3,486.3 C346.9,473.6 352.3,461.8 357.7,450.0 
	C358.6,448.1 360.2,446.1 358.3,444.0 C356.6,442.1 354.5,442.6 352.3,442.8 
	C347.8,443.1 344.6,445.2 341.7,448.5 C337.6,453.0 333.2,457.4 329.1,461.9 
	C327.7,463.4 326.1,465.4 324.1,463.6 C321.7,461.5 324.8,460.3 325.7,458.8 
	C326.3,458.0 327.0,457.3 327.9,456.2 C324.3,454.6 323.9,452.5 327.5,450.7 
	C330.7,449.2 332.1,444.5 336.7,445.8 C338.5,440.3 344.5,441.0 348.0,438.1 
	C351.0,435.7 350.8,429.8 347.7,425.2 C336.6,408.2 327.6,390.2 319.9,371.4 
	C317.7,366.1 315.0,361.0 311.7,356.1 C304.4,345.2 301.1,332.7 298.8,319.9 
	C296.0,304.1 293.4,288.2 287.9,273.0 C286.5,269.2 286.6,265.2 285.8,261.3 
	C283.0,248.2 278.2,235.9 273.8,223.4 C271.3,216.1 270.0,208.3 267.5,200.9 
	C264.4,191.2 262.9,180.9 257.0,172.2 C252.9,166.1 247.5,162.5 239.8,164.1 
	C238.6,164.3 237.4,164.3 237.0,162.8 C236.6,161.4 237.4,160.5 238.5,159.9 
	C241.3,158.2 244.1,158.4 247.1,159.6 C257.6,163.5 262.8,171.4 266.5,181.8 
	C272.5,198.7 275.2,216.5 282.1,233.1 C286.3,243.0 289.0,253.5 290.3,264.3 
	C290.5,265.8 290.4,267.3 292.6,268.0 C294.8,264.9 294.2,260.8 294.1,257.7 
	C293.9,247.8 292.4,237.9 291.3,228.1 C290.4,221.3 290.3,214.5 291.3,207.7 
	C291.7,205.3 292.1,202.6 291.5,200.3 C290.1,195.0 291.4,190.1 292.7,185.1 
	C294.7,177.1 290.4,170.4 282.4,168.3 C280.1,167.8 277.9,167.0 275.8,166.1 
	C274.0,165.2 272.3,164.1 273.4,161.3 C277.9,160.7 281.4,165.1 286.5,164.2 
	C282.3,157.6 275.7,155.5 269.4,153.7 C261.5,151.3 253.5,149.5 244.9,151.2 
	C230.1,154.2 217.2,159.8 207.6,172.0 C197.0,185.5 190.9,201.4 183.4,216.6 
	C177.2,228.8 180.1,241.0 184.2,253.1 C184.9,255.2 186.7,256.2 188.5,257.2 
	C190.0,258.0 190.7,259.2 189.8,260.9 C188.9,262.5 187.4,262.4 185.9,261.9 
	C183.2,261.0 181.1,259.2 180.1,256.7 C178.9,253.3 178.4,249.6 177.3,245.2 
	C176.0,255.6 170.2,263.5 167.6,272.6 C166.6,276.2 166.2,279.8 165.6,283.3 
	C164.7,288.9 164.7,294.6 164.4,300.2 C164.2,302.4 164.2,304.5 165.9,306.3 
	C167.3,307.6 166.7,309.3 166.1,310.9 C163.9,316.6 163.1,321.8 167.9,327.1 
	C170.9,330.4 171.8,335.5 176.1,338.1 C177.2,338.8 177.5,340.0 176.6,341.2 
	C175.6,342.5 174.4,342.1 173.2,341.2 C171.0,339.6 169.3,337.7 168.0,335.2 
	C166.8,333.0 166.3,330.1 163.1,328.5 C160.3,333.9 161.0,339.9 159.5,345.3 
	C158.7,348.3 158.0,351.4 159.2,354.6 C159.6,355.7 159.5,357.6 158.8,358.4 
	C153.4,364.4 156.9,370.5 159.9,375.2 C162.4,379.1 162.3,382.2 161.7,387.2 
	C155.9,381.8 156.6,374.3 152.2,368.4 C143.8,391.1 144.2,414.1 145.4,437.3 
	C142.1,436.6 141.9,434.7 141.8,433.2 C140.2,411.3 139.4,389.0 148.1,368.5 
	C154.4,353.5 156.5,337.9 160.2,322.5 C162.6,312.7 160.2,302.4 160.7,292.3 
	C161.4,279.7 163.1,267.3 170.1,256.2 C173.2,251.4 172.7,245.6 173.4,240.3 
	C177.2,213.2 189.3,189.7 205.1,168.1 C214.4,155.6 228.2,149.3 243.7,146.6 
	C251.8,145.1 259.5,146.3 267.3,148.3 C269.4,148.9 272.1,151.0 274.1,148.0 
	C275.8,145.2 272.1,144.2 271.7,141.7 C274.1,139.2 275.7,136.3 273.4,132.6 
	C272.9,131.8 272.6,130.8 273.5,129.9 C274.7,128.9 275.7,129.7 276.6,130.4 
	C277.7,131.2 278.5,132.3 279.7,132.9 C282.3,134.2 284.5,134.0 285.3,130.8 
	C283.9,128.3 280.3,129.3 279.2,125.9 C283.3,122.9 288.1,125.8 289.9,127.5 
	C292.8,130.3 293.1,135.4 291.7,139.7 C289.2,140.8 288.4,138.0 286.2,138.1 
	C286.0,139.9 285.9,142.1 288.1,142.4 C292.9,143.0 294.6,138.8 297.1,135.5 
	C296.1,134.6 295.1,133.8 294.1,133.0 C294.6,130.5 295.8,128.0 298.0,127.5 
	C301.7,126.7 301.8,124.4 301.7,121.6 C300.6,105.7 305.6,91.0 312.8,77.3 
	C318.3,66.9 324.6,56.9 333.9,49.3 C350.2,35.9 368.3,26.8 389.4,23.5 
	C408.4,20.6 426.6,22.8 444.3,29.7 C447.3,30.8 449.9,33.2 453.3,33.4 
	C454.8,33.5 457.6,33.4 457.1,32.4 C454.9,27.4 462.2,23.5 457.8,18.5 
	C461.3,17.6 463.2,18.4 463.3,21.8 C463.3,23.0 463.3,24.2 463.1,25.3 
	C461.4,34.4 462.5,35.7 472.0,35.6 C473.1,34.2 472.5,32.4 472.6,30.8 
	C472.8,29.4 472.4,27.8 473.5,26.1 C476.7,26.3 479.6,26.4 477.1,31.1 
	C475.5,34.1 476.7,36.4 479.3,38.3 C483.9,33.2 479.5,26.5 482.9,21.3 
	C484.7,25.5 485.4,29.8 485.4,34.2 C487.3,35.0 490.1,31.8 490.6,34.7 
	C491.3,38.4 487.3,38.9 484.5,40.2 C488.6,39.7 489.6,43.3 491.6,45.2 
	C494.5,47.9 497.8,44.4 500.5,46.2 C501.7,47.8 500.0,49.3 501.2,50.3 
	C506.1,55.2 511.3,59.7 515.8,64.9 C520.8,70.8 526.0,76.6 530.1,83.3 
	C531.7,86.0 533.9,88.6 534.5,91.6 C536.6,102.9 543.3,111.9 548.9,121.4 
	C553.5,129.1 554.7,137.5 556.2,145.9 C557.1,150.8 557.6,151.5 562.2,149.3 
	C564.1,148.5 565.9,148.1 568.0,148.7 C569.6,149.2 571.4,149.7 571.9,151.5 
	C572.5,153.8 570.2,153.7 569.0,154.7 C565.9,157.1 564.4,160.0 564.6,164.5 
	C564.8,172.7 563.4,180.9 561.1,188.9 C560.7,190.2 559.7,191.0 558.5,190.8 
	C556.8,190.6 556.5,189.0 556.8,187.7 C558.2,181.2 554.3,177.1 549.7,174.2 
	C544.8,171.1 539.2,172.0 534.3,175.3 C533.0,176.1 531.9,177.1 531.3,178.5 
	C530.4,180.5 530.7,182.2 532.5,183.3 C534.5,184.6 535.5,183.0 536.3,181.4 
	C537.7,178.8 539.2,176.6 542.5,178.1 C543.4,180.1 541.6,180.7 541.2,181.9 
	C540.4,184.1 541.1,185.4 543.4,184.9 C546.1,184.4 548.8,182.6 549.9,187.1 
	C550.9,191.3 547.0,190.8 545.1,192.5 C546.3,196.4 549.5,197.7 552.6,199.3 
	C554.6,197.0 552.7,194.2 554.8,192.2 C558.8,193.3 557.7,196.9 557.2,199.0 
	C555.5,205.0 558.9,208.8 562.0,212.8 C571.6,224.9 577.7,238.3 579.5,253.8 
	C581.0,266.3 582.7,278.8 583.2,291.3 C583.7,304.6 575.3,309.8 562.9,305.5 
	C555.8,303.0 549.9,299.2 544.1,294.6 C540.6,291.7 536.5,288.4 531.1,290.2 
	C530.3,290.4 529.5,290.8 529.3,291.9 C531.0,294.3 535.0,293.8 536.5,297.1 
	C536.8,298.7 534.6,297.8 534.2,299.3 C535.7,301.7 536.1,305.1 539.4,306.6 
	C541.2,307.3 541.8,308.6 540.6,310.1 C539.3,311.7 537.8,311.4 536.3,310.1 
	C534.5,308.5 534.3,305.4 531.2,305.0 C529.4,306.7 530.3,308.3 531.2,309.9 
	C532.0,311.2 534.0,312.3 532.4,314.2 C530.9,315.8 529.3,314.3 527.8,314.0 
	C527.5,313.9 527.1,313.9 526.8,313.9 C524.3,315.6 526.2,318.8 524.4,320.9 
	C521.2,320.9 518.1,319.8 515.2,318.8 C514.2,320.0 514.3,321.0 514.7,321.9 
	C516.4,326.3 514.8,329.3 510.9,331.4 C509.2,332.3 507.2,333.7 508.0,335.5 
	C508.7,337.2 509.9,339.6 512.5,339.6 C515.2,339.5 515.9,341.0 516.8,343.3 
	C518.5,347.7 521.0,351.9 525.0,354.9 C524.9,357.5 522.1,357.8 520.8,359.4 
	C521.7,360.3 523.9,359.3 523.7,361.3 C523.5,364.2 521.3,365.9 517.9,366.9 
	C522.5,370.2 525.2,367.2 528.0,365.8 C530.2,364.6 532.0,362.8 533.9,361.2 
	C537.3,358.5 541.1,357.4 544.9,360.1 C548.7,362.8 549.4,367.0 548.8,371.2 
	C548.1,375.7 546.5,379.9 543.7,383.6 C541.8,386.0 542.0,388.1 544.4,390.1 
	C544.9,390.5 545.6,390.9 545.8,391.5 C547.8,396.8 551.2,396.0 555.7,394.4 
	C562.9,391.7 572.2,398.4 572.3,406.0 C572.3,408.7 573.0,410.5 575.7,411.9 
	C583.5,416.1 584.8,419.1 583.5,428.0 C583.1,430.6 583.5,432.8 585.3,434.9 
	C591.1,441.9 590.9,448.4 585.0,455.4 C582.5,458.4 583.3,462.1 582.6,465.4 
	C581.5,470.3 579.8,474.7 575.9,477.9 C573.0,480.3 572.7,483.6 572.4,486.9 
	C571.8,491.5 569.5,494.9 565.5,497.3 C562.0,499.4 558.8,500.0 555.8,496.5 
	C553.2,493.4 551.3,494.6 549.7,497.5 C545.8,504.6 540.4,506.6 532.9,503.6 
	C530.5,502.6 528.6,503.0 526.4,504.4 C519.3,508.8 516.7,508.5 510.6,502.9 
	C509.0,501.4 507.4,500.7 504.9,501.1 C500.5,501.8 495.9,502.1 492.6,497.7 
	C491.9,496.8 490.7,496.0 489.5,496.7 C485.5,499.0 481.5,497.9 477.4,497.4 
	C472.1,496.7 467.5,497.8 463.5,502.0 C459.8,505.8 454.6,508.0 449.5,509.5 
	C443.2,511.4 437.5,514.4 432.9,519.0 C426.3,525.6 417.1,527.1 409.7,532.1 
	C402.1,537.3 393.6,540.3 384.8,542.8 C383.9,543.1 383.2,543.9 382.2,544.7 
	C377.3,545.0 372.6,545.0 367.4,545.0 Z"/>
</svg> 