<svg version="1.1" id="Layer_1" xmlns="http://www.w3.org/2000/svg" xmlns:xlink="http://www.w3.org/1999/xlink" x="0px" y="0px"
	 width="100%" viewBox="0 0 576 512" enable-background="new 0 0 576 512" xml:space="preserve">
<path fill="#000000" opacity="1.000000" stroke="none" 
	d="
M429.542572,471.582947 
	C403.016022,488.275879 374.689209,499.394867 344.287415,505.377625 
	C327.559601,508.669464 310.664948,510.286407 293.683777,509.957397 
	C239.480911,508.907074 190.217865,492.841492 146.887604,459.926331 
	C95.166328,420.637115 62.488079,369.032745 51.759872,304.985626 
	C36.849957,215.973770 62.787945,139.573105 128.291183,77.550758 
	C164.002518,43.737167 207.086746,23.430683 255.784866,15.570268 
	C320.280670,5.159936 380.317841,17.562569 434.453766,53.828106 
	C492.679626,92.833435 528.636963,147.444000 541.364685,216.665176 
	C551.087524,269.543976 544.158875,320.475037 520.965515,368.916595 
	C500.475739,411.711334 469.792328,445.742340 429.542572,471.582947 
M447.127319,79.387657 
	C440.978119,74.823982 434.983459,70.032791 428.654114,65.734375 
	C393.427155,41.810818 354.446930,28.249842 312.039642,25.502178 
	C277.247772,23.247934 243.287506,28.145985 210.744492,41.211117 
	C162.718323,60.492317 124.428543,91.725967 96.887779,135.558014 
	C70.165894,178.086761 58.206905,224.586578 61.112385,274.900970 
	C62.565201,300.059418 67.720688,324.329987 77.118858,347.642365 
	C96.332787,395.302979 127.560539,433.095367 171.044556,460.603577 
	C217.844910,490.209625 269.034027,501.241425 323.807312,495.425385 
	C356.500946,491.953796 387.157349,481.399628 415.433075,464.630310 
	C465.828491,434.742584 500.887695,392.049011 519.986877,336.599030 
	C531.477722,303.238220 535.053528,268.949921 530.877197,233.798965 
	C528.525513,214.005966 524.041260,194.807953 516.823608,176.290482 
	C502.006622,138.276260 478.882416,106.140610 447.127319,79.387657 
z"/>
<path fill="#000000" opacity="1.000000" stroke="none" 
	d="
M203.220062,147.503448 
	C206.950897,142.789352 214.890411,140.864914 219.605759,143.472809 
	C222.352081,144.991714 224.882156,147.494324 222.729309,150.728043 
	C219.210907,156.012924 220.068130,161.655151 220.717773,167.160370 
	C221.430954,173.204025 223.593353,179.085983 224.197693,185.131027 
	C225.120346,194.360199 230.201950,201.980606 233.248306,210.348312 
	C235.836624,217.457840 242.146072,222.445847 248.097733,226.902771 
	C256.177002,232.952866 264.643463,238.498215 274.456573,241.774078 
	C278.116882,242.995987 281.823273,243.680359 285.504364,244.596481 
	C287.616394,245.122116 289.984131,245.310852 290.558685,242.202896 
	C291.094910,239.302017 289.283142,238.466949 286.930328,237.914124 
	C278.176605,235.857300 269.756653,233.109421 261.970337,228.309616 
	C244.710632,217.669998 235.085022,202.229675 231.646149,182.500351 
	C230.753815,177.380951 230.685593,172.236313 230.365845,167.101089 
	C230.009766,161.382324 229.337616,155.882675 225.954010,150.967178 
	C224.051041,148.202652 225.323700,145.979782 227.965927,144.288437 
	C234.339493,140.208603 242.595871,141.206314 249.037659,147.354782 
	C254.934311,141.678360 262.386902,143.298141 269.616180,143.800201 
	C272.403290,143.993774 275.314301,144.443756 276.637390,147.646790 
	C277.916748,150.743866 276.034271,152.657715 274.245331,154.691025 
	C269.393097,160.206024 268.854156,166.649597 269.008453,173.785843 
	C269.221466,183.639160 274.693146,190.321533 280.544495,197.045609 
	C281.489960,198.132111 282.912170,198.869247 284.224121,199.558151 
	C287.255219,201.149796 288.949677,200.606552 289.841888,196.826370 
	C290.889313,192.388367 291.292084,187.938965 290.725006,183.555496 
	C289.939026,177.479980 289.812012,171.618454 291.514313,165.640106 
	C292.569427,161.934677 291.286957,158.707718 288.304108,155.793335 
	C284.026703,151.614059 285.130554,146.255280 290.527100,143.583130 
	C296.876129,140.439362 303.426056,140.382294 309.720673,143.651642 
	C312.741302,145.220520 316.030609,147.862701 312.978210,151.495026 
	C307.910278,157.525787 307.033875,164.018723 308.527435,171.373413 
	C310.171570,179.469696 308.965149,187.684311 309.173431,195.842926 
	C309.288300,200.341980 311.473114,201.584534 315.783905,199.911148 
	C320.898438,197.925766 323.610413,193.747299 326.473755,189.286758 
	C331.372284,181.655670 332.835144,173.816376 330.760559,165.074081 
	C329.966095,161.726242 328.381775,158.875549 326.485168,156.133469 
	C322.459412,150.313110 325.173523,143.961990 332.371277,142.833893 
	C334.811279,142.451508 337.367981,142.554764 339.848755,142.739700 
	C347.708313,143.325653 349.698700,146.717621 347.841675,154.399811 
	C346.284943,160.839737 345.147186,167.500137 347.280823,174.096664 
	C348.305878,177.265686 346.963196,180.047058 346.162262,182.857834 
	C341.536499,199.091751 333.415833,212.164444 315.370819,215.951675 
	C313.306793,216.384888 311.451355,217.054184 311.382416,219.632828 
	C311.305695,222.503296 312.187927,224.508682 315.478851,222.990417 
	C322.988251,219.525986 330.504028,216.409515 337.143890,210.927887 
	C342.842804,206.223083 347.318604,201.273315 350.645416,194.769928 
	C352.175171,191.779510 352.920563,188.735031 352.951324,185.729004 
	C353.037170,177.329041 356.229126,169.054413 353.840302,160.540237 
	C353.293091,158.589905 352.902588,156.689407 351.591858,155.098923 
	C348.909149,151.843521 349.704987,148.939850 352.595673,146.360580 
	C356.656677,142.737122 361.367218,140.935318 366.850098,141.818268 
	C372.199066,142.679688 374.361267,146.690460 372.175385,151.619415 
	C370.117218,156.260391 369.869293,160.926224 369.915314,166.085190 
	C370.100311,186.824265 366.616058,206.325287 350.173767,221.573914 
	C340.834320,230.235336 329.641846,233.952621 318.041687,237.414505 
	C316.294189,237.936035 314.489471,238.370071 312.860474,239.154556 
	C311.285126,239.913239 311.073242,241.497482 311.585876,243.054810 
	C312.044586,244.448318 313.228485,244.517303 314.469849,244.308243 
	C326.693420,242.249466 338.093750,238.482361 348.769226,231.677826 
	C357.303864,226.237885 362.685303,218.334381 368.415894,210.758118 
	C373.112854,204.548386 375.227936,196.479141 376.152313,188.850204 
	C377.285248,179.499771 379.668579,170.192276 378.825104,160.612518 
	C378.575317,157.775543 378.455933,155.077805 376.954163,152.471558 
	C375.082184,149.222748 376.361694,146.263779 379.007446,144.046585 
	C382.145844,141.416565 389.804810,141.082870 393.350708,143.225021 
	C396.631958,145.207306 397.343201,148.591782 395.951782,151.521515 
	C393.488831,156.707169 393.714081,162.084793 394.522827,167.204971 
	C396.353394,178.794296 393.822266,189.815033 390.655853,200.597229 
	C386.135651,215.989410 378.263916,229.858093 365.922638,240.277328 
	C355.771118,248.847824 344.198029,255.425705 330.596436,257.373016 
	C328.137787,257.725006 325.747955,258.535126 323.307587,259.043610 
	C320.621582,259.603271 319.260529,261.114777 319.362915,263.923828 
	C319.424622,265.616852 318.944946,267.017456 317.745026,268.438965 
	C313.203644,273.819061 313.176453,275.104462 317.240448,281.090973 
	C319.782440,284.835449 321.634918,288.040588 316.460571,291.478546 
	C314.025391,293.096527 314.792908,296.128479 317.143768,297.873779 
	C322.566956,301.900085 325.226166,307.364868 326.431122,313.847748 
	C327.183807,317.897522 330.217896,319.884247 334.090179,319.533447 
	C340.932190,318.913574 347.750549,319.830139 354.544281,319.431549 
	C358.497192,319.199646 359.497223,320.571136 359.395813,324.178436 
	C359.208557,330.838531 359.408142,337.508698 359.288757,344.171844 
	C359.216370,348.213013 360.957367,349.948181 365.012360,349.740906 
	C368.502472,349.562500 372.014099,349.825226 375.507050,349.676849 
	C378.680420,349.542084 380.136597,350.871796 380.127991,354.033569 
	C380.103088,363.198242 380.086670,372.363403 380.159729,381.527649 
	C380.183777,384.544373 378.892090,385.452789 375.911987,385.511932 
	C326.263458,386.497040 276.610046,385.654114 226.960236,385.965515 
	C220.315689,386.007202 219.818436,385.310638 219.839081,378.858643 
	C219.864670,370.860138 219.969879,362.859711 219.827515,354.863892 
	C219.758957,351.014099 221.211044,349.379395 225.131546,349.644867 
	C228.448654,349.869415 231.793777,349.659515 235.126160,349.684753 
	C238.840012,349.712830 240.681274,347.852173 240.715805,344.190552 
	C240.775482,337.859100 241.022751,331.517670 240.755127,325.198944 
	C240.574982,320.945831 241.699631,319.179901 246.320740,319.484741 
	C252.625885,319.900635 258.978882,319.650543 265.310455,319.590027 
	C272.128418,319.524841 274.568207,317.700073 276.232452,311.277557 
	C277.530060,306.270142 279.940155,302.093201 284.066498,298.859680 
	C287.281250,296.340546 287.792664,293.661407 284.356476,290.606781 
	C281.262573,287.856476 282.238251,284.670105 284.256012,281.667175 
	C288.936462,274.701508 288.940033,274.703918 283.732300,267.584290 
	C283.536316,267.316376 283.156616,267.034760 283.173798,266.780579 
	C283.681030,259.290344 278.100586,259.869019 273.247833,258.917206 
	C259.274567,256.176514 246.526031,250.141754 236.339783,240.439377 
	C227.760422,232.267609 219.958176,223.073349 214.508072,212.166809 
	C206.695450,196.532516 204.327316,179.970673 205.799957,162.858841 
	C206.273102,157.361023 202.967697,153.029007 203.220062,147.503448 
M273.013672,210.594879 
	C259.772522,200.091019 255.170135,185.756714 254.512695,169.530350 
	C254.326019,164.923187 254.066864,160.168198 251.767258,155.946518 
	C250.872314,154.303589 250.400925,151.641098 247.846588,152.169846 
	C245.533936,152.648575 245.321442,155.004364 245.287125,157.061691 
	C245.214890,161.392334 244.898514,165.744034 245.201797,170.050537 
	C245.819717,178.824829 247.104202,187.539017 251.412552,195.387329 
	C258.821320,208.883484 270.259216,217.472504 284.814087,222.101913 
	C286.909241,222.768311 289.341949,223.769608 290.148560,220.714905 
	C290.882690,217.934662 288.648346,216.947006 286.377075,216.496262 
	C281.722961,215.572617 277.523468,213.638550 273.013672,210.594879 
M336.516571,376.051697 
	C343.327148,376.223572 350.138550,376.566223 356.948090,376.532166 
	C371.661865,376.458588 369.600708,379.259949 370.019409,362.491608 
	C370.023529,362.325470 370.008026,362.158936 370.010651,361.992706 
	C370.049530,359.556488 368.954132,358.288788 366.414978,358.318054 
	C359.764679,358.394806 353.113586,358.407532 346.463562,358.498871 
	C346.082092,358.504120 345.707123,358.983917 344.189117,360.023865 
	C345.978027,360.763245 347.387970,361.345978 348.800171,361.929657 
	C346.650482,364.376648 345.958588,365.891174 346.810577,368.189423 
	C348.147125,371.794952 346.273651,374.018341 342.667938,374.518066 
	C340.401367,374.832184 338.056580,374.649445 335.749939,374.583435 
	C334.170258,374.538208 333.202576,373.690277 333.515930,372.014984 
	C333.828766,370.342529 334.998444,370.021637 336.537598,370.384949 
	C338.910156,370.945007 341.332367,371.708618 343.857239,369.506439 
	C340.635376,364.399445 334.509583,372.718994 331.578033,366.592316 
	C335.517517,365.335815 340.303162,365.247864 340.306152,359.013702 
	C336.542755,358.229156 331.975281,356.901611 329.518982,359.723328 
	C326.397919,363.308624 327.844818,368.656769 328.568909,373.146271 
	C329.196716,377.039001 332.951385,375.730011 336.516571,376.051697 
M349.627014,335.442474 
	C349.510468,328.357788 349.510468,328.355072 342.409058,328.367401 
	C339.416718,328.372620 336.424164,328.372681 333.432098,328.408447 
	C322.715942,328.536530 323.375977,326.426697 323.356750,338.543396 
	C323.346436,345.035034 325.288269,346.145691 331.606323,343.298920 
	C331.778931,341.157501 331.797760,339.018494 330.723389,337.025391 
	C329.955414,335.600677 329.535828,334.182129 331.205475,333.105194 
	C332.608307,332.200348 334.097168,331.225830 335.740936,332.612061 
	C337.048035,333.714417 338.317352,333.513763 339.899414,333.140289 
	C344.616913,332.026642 346.808411,334.229340 345.502533,339.115479 
	C344.773407,341.843536 345.930969,342.614716 347.830902,343.521515 
	C350.145721,341.340210 349.457214,338.725372 349.627014,335.442474 
M375.089233,357.254944 
	C371.968658,355.212555 372.545502,358.316986 372.506592,359.412415 
	C372.323395,364.571381 372.165344,369.758179 372.516602,374.899658 
	C372.749634,378.310760 371.608673,379.355103 368.371002,379.277954 
	C361.708344,379.119232 355.040100,379.190430 348.374176,379.175293 
	C344.493347,379.166473 340.612457,379.173706 336.731598,379.173706 
	C336.742371,379.679474 336.753143,380.185242 336.763947,380.691010 
	C348.793396,380.830292 360.820312,381.266266 372.857910,380.340302 
	C375.399261,380.144775 375.656128,378.341370 375.630951,376.411469 
	C375.550629,370.252380 375.418182,364.094025 375.089233,357.254944 
M261.893280,162.330719 
	C264.677795,164.469299 262.340210,167.069168 262.111938,169.598038 
	C264.957733,169.078537 265.979095,167.312622 265.821899,165.236450 
	C265.547943,161.619431 265.986084,158.321198 268.105286,155.284607 
	C268.983124,154.026733 268.868011,152.512695 267.359528,151.901459 
	C264.230316,150.633499 260.936615,148.929016 257.734802,152.502533 
	C260.224609,155.209656 259.543182,158.962738 261.893280,162.330719 
M321.485321,311.953308 
	C319.932678,309.209534 319.425262,304.030365 315.641235,305.173676 
	C312.221741,306.206879 314.322601,310.638489 315.117737,313.572052 
	C315.613098,315.399719 316.558197,317.130157 318.892670,316.769135 
	C321.142120,316.421234 321.724274,314.729889 321.485321,311.953308 
M325.452942,363.304626 
	C324.815613,361.296539 326.513885,358.659180 323.918823,357.038116 
	C321.221161,361.257507 321.357300,373.555847 324.665924,378.404724 
	C324.979431,373.053864 325.242371,368.566254 325.452942,363.304626 
M306.512482,224.053558 
	C307.917938,222.196396 308.768005,219.453735 306.854065,218.397400 
	C304.550720,217.126144 301.292389,216.485764 298.557434,219.066513 
	C299.988373,222.443954 301.299622,225.621658 306.512482,224.053558 
M235.980881,157.446075 
	C236.350311,159.815613 237.020035,161.923691 239.830322,162.289673 
	C241.366516,160.513596 240.621719,158.560028 241.006378,156.830505 
	C241.434464,154.905670 242.100662,152.788437 239.874039,151.467300 
	C238.833710,150.850037 237.569031,150.940781 236.551147,151.661911 
	C234.580780,153.057831 235.667358,154.951614 235.980881,157.446075 
M339.333954,159.858032 
	C340.147369,160.295746 340.618103,161.451996 342.174072,160.955795 
	C342.018372,158.994354 341.949066,156.937851 341.663055,154.911942 
	C341.453278,153.425980 340.283142,152.753555 338.884125,152.552933 
	C337.678558,152.380051 336.570496,152.695694 335.820129,153.696304 
	C334.875763,154.955612 335.261169,156.243866 336.165649,157.285248 
	C336.902954,158.134125 337.895599,158.761215 339.333954,159.858032 
M391.370300,151.422791 
	C391.058197,148.727753 389.053345,148.416290 387.001892,148.578110 
	C385.374146,148.706512 384.203552,149.767303 384.264771,151.540604 
	C384.360382,154.309097 386.263641,155.460861 388.547485,156.132156 
	C390.467010,155.336823 390.733124,153.626129 391.370300,151.422791 
M301.086792,151.225525 
	C300.552277,153.312531 301.018005,155.067703 302.905212,156.575607 
	C305.379761,155.678421 306.988556,153.961334 307.490662,151.395706 
	C307.718231,150.232788 307.069824,149.032440 305.923035,148.560974 
	C303.785645,147.682220 302.598389,149.236786 301.086792,151.225525 
M304.616943,239.385132 
	C302.431519,239.416321 300.984497,240.225342 301.528534,242.700836 
	C301.936554,244.557541 303.370575,245.427811 305.156097,245.593033 
	C306.837769,245.748657 308.133270,245.007767 308.485748,243.279434 
	C308.986298,240.825333 307.973083,239.431427 304.616943,239.385132 
M310.400116,268.671295 
	C309.204712,265.015228 307.071564,267.441956 305.434631,268.050537 
	C303.657257,268.711304 302.808411,270.176331 303.991913,272.018219 
	C305.347534,274.127991 307.167053,273.590424 308.647064,272.292297 
	C309.441132,271.595764 309.715302,270.306488 310.400116,268.671295 
M352.712463,329.385651 
	C351.933502,334.066376 351.935059,338.725128 353.038269,343.374664 
	C354.601959,338.640991 354.849304,333.831482 354.143616,328.971436 
	C354.004181,328.011108 353.497803,327.228729 352.712463,329.385651 
M311.564301,295.694305 
	C312.230133,294.374512 313.181427,292.157593 311.263824,292.099060 
	C307.453705,291.982758 303.496918,290.797058 299.654053,292.347534 
	C303.557404,293.546661 307.565247,293.964874 311.564301,295.694305 
M365.843964,168.849274 
	C365.284149,166.629791 366.586853,163.971191 364.200226,161.752686 
	C361.189545,164.252594 361.920868,167.393402 362.722076,169.999710 
	C363.370758,172.109833 364.930725,171.390167 365.843964,168.849274 
M326.986267,231.300003 
	C327.466156,230.810547 328.457489,229.520065 327.213776,229.842102 
	C322.213257,231.136856 317.367371,233.028549 312.464325,234.699646 
	C317.575287,235.087250 321.969116,233.203186 326.986267,231.300003 
M304.632477,197.679428 
	C304.528900,196.405746 304.601654,195.050827 302.488495,194.054321 
	C302.507935,196.823410 299.350861,197.445587 298.811401,200.441254 
	C301.458191,201.219788 303.414215,201.085251 304.632477,197.679428 
M362.861084,354.289551 
	C360.527405,354.451111 358.098480,354.017059 354.822327,355.275757 
	C359.103790,355.275757 362.235016,355.275757 365.366241,355.275757 
	C365.367767,355.057312 365.369293,354.838898 365.370789,354.620453 
	C364.767181,354.512238 364.163544,354.404022 362.861084,354.289551 
z"/>
<path fill="#000000" opacity="1.000000" stroke="none" 
	d="
M490.694641,352.280609 
	C485.802917,350.084381 481.273956,347.978546 476.694946,345.987885 
	C473.891754,344.769226 471.200165,344.969086 468.739136,347.007660 
	C464.152710,350.806763 464.377563,354.299408 469.607819,357.074097 
	C474.460205,359.648346 479.438538,361.984131 484.340485,364.466248 
	C487.368988,365.999725 488.583740,368.567810 488.295288,371.884216 
	C487.945343,375.907562 486.049866,379.198486 483.082581,381.787933 
	C481.876831,382.840149 480.573639,381.803345 479.524994,380.930786 
	C478.245026,379.865784 476.651642,378.835358 477.790924,376.833130 
	C480.231079,372.544464 477.513367,370.798645 474.210052,369.271973 
	C472.395935,368.433533 470.589294,367.577850 468.795258,366.697388 
	C462.516357,363.615784 460.249969,364.143372 456.085510,369.468597 
	C454.478821,371.523102 455.797211,372.817078 457.019836,374.213348 
	C459.979614,377.593567 463.162170,380.805176 465.861267,384.381836 
	C471.910980,392.398560 471.564850,400.661896 465.168488,408.638153 
	C458.879974,416.479919 450.713531,418.397461 441.547211,414.218658 
	C435.090820,411.275299 429.944855,406.451691 424.370392,402.252197 
	C421.599854,400.164948 423.419006,398.260010 424.875031,396.341461 
	C426.419037,394.306946 427.957062,393.443451 430.241241,395.376678 
	C432.527374,397.311554 434.911255,399.143555 437.358063,400.870758 
	C438.681091,401.804718 440.251129,402.944489 441.827667,401.315704 
	C443.349060,399.743927 443.162262,397.821045 441.911163,396.300537 
	C439.908813,393.867096 437.738312,391.544067 435.434235,389.393707 
	C432.374634,386.538269 434.810028,384.777527 436.448425,382.732697 
	C438.397461,380.300140 440.071838,381.219757 441.815399,382.986084 
	C444.038940,385.238556 446.337524,387.416656 448.580139,389.650513 
	C451.934845,392.992126 453.195496,396.792114 451.542358,401.479156 
	C450.943787,403.176147 449.503113,405.396057 452.060944,406.802917 
	C454.492096,408.140106 456.194244,406.402161 457.719604,404.894043 
	C462.661987,400.007599 463.064636,394.597931 458.524109,389.326233 
	C454.945923,385.171783 451.027924,381.291779 447.068390,377.490326 
	C444.357086,374.887238 443.793701,372.302826 446.927429,370.028992 
	C450.321625,367.566132 451.240814,363.951294 452.568390,360.407227 
	C455.026489,353.845245 457.757019,347.396332 461.993134,341.736511 
	C466.212585,336.098999 471.650085,334.274261 478.304962,336.887573 
	C484.649536,339.378998 490.696442,342.618164 496.972961,345.297211 
	C500.494690,346.800415 500.047699,348.855499 498.738617,351.639069 
	C497.314178,354.667786 495.464752,355.094482 492.808136,353.342468 
	C492.255127,352.977783 491.628815,352.724335 490.694641,352.280609 
z"/>
<path fill="#000000" opacity="1.000000" stroke="none" 
	d="
M508.306763,245.796936 
	C506.282013,252.578079 501.537872,255.430328 495.314880,256.304932 
	C492.353943,256.721069 489.370270,257.070251 486.386047,257.199768 
	C483.298615,257.333771 480.457703,257.110107 479.988770,261.517822 
	C479.743835,263.820099 477.131592,263.216522 475.364594,263.235687 
	C473.117462,263.260101 472.679779,261.694702 472.554840,259.897034 
	C471.932159,250.941071 471.290558,241.986328 470.698334,233.028336 
	C470.534180,230.545288 470.951660,227.946365 469.884705,225.632751 
	C466.979675,219.333420 468.821198,214.420135 473.451172,209.647064 
	C476.105743,206.910477 479.122986,204.098007 480.275696,199.824173 
	C476.744751,198.583710 473.517242,199.301529 470.313110,199.911835 
	C462.657623,201.370087 461.739410,200.612961 461.745392,192.003510 
	C469.450775,191.383713 477.010376,187.614899 485.008636,191.260239 
	C487.400879,192.350571 488.709808,190.795227 490.105713,189.314362 
	C492.117493,187.180176 493.248138,184.214676 496.057556,182.805130 
	C500.205902,188.147293 500.169647,190.833130 496.356018,195.940033 
	C494.007538,199.084991 491.028625,201.833511 489.522736,205.884171 
	C492.857574,207.805496 496.227081,207.004410 499.274017,206.193878 
	C503.690186,205.019089 504.381500,207.701050 505.158661,210.773956 
	C506.067261,214.366806 503.862091,214.953491 501.080505,215.373215 
	C495.624847,216.196503 490.198303,217.254929 485.016754,214.280060 
	C483.334045,213.313934 482.196442,214.277832 481.110046,215.408127 
	C478.350128,218.279510 475.633362,221.182495 473.733093,225.251862 
	C480.992737,228.016785 478.324982,234.611710 478.972992,239.701859 
	C480.055267,248.203201 479.615204,248.259216 487.982178,247.879150 
	C499.357971,247.362396 501.311829,245.119659 500.785278,233.416824 
	C500.646088,230.323227 499.161560,226.537308 504.445801,225.893127 
	C506.485626,225.644455 507.744873,226.062439 508.107452,228.116837 
	C509.120026,233.854614 510.151276,239.602234 508.306763,245.796936 
z"/>
<path fill="#000000" opacity="1.000000" stroke="none" 
	d="
M105.534309,273.973755 
	C115.003731,279.003601 119.045067,286.862122 117.048431,295.809326 
	C115.320770,303.551270 108.253494,309.731445 100.536423,310.294312 
	C92.028351,310.914825 85.659798,307.608337 81.645378,300.018066 
	C78.266228,293.628937 79.221733,285.016846 83.873009,279.357849 
	C88.836014,273.319580 96.802628,271.245514 105.534309,273.973755 
z"/>
<path fill="#000000" opacity="1.000000" stroke="none" 
	d="
M512.250732,288.435669 
	C514.567383,305.363800 497.873047,314.899078 484.998352,308.275696 
	C477.896606,304.622131 473.504364,295.942963 475.090332,288.214386 
	C476.901093,279.390076 483.629883,273.350342 492.335907,272.734772 
	C500.916473,272.128082 508.644287,277.150146 511.373810,285.124664 
	C511.696259,286.066772 511.932343,287.038483 512.250732,288.435669 
z"/>
<path fill="#000000" opacity="1.000000" stroke="none" 
	d="
M96.773438,263.359985 
	C95.466988,263.353210 94.634697,263.352020 93.802437,263.345886 
	C82.901657,263.265594 82.827934,263.264771 82.926941,252.084549 
	C82.956245,248.775986 83.286850,245.426437 83.901253,242.175400 
	C85.376717,234.368210 90.731606,230.219147 99.330627,230.210632 
	C105.480843,230.204529 111.630592,230.571732 117.782059,230.644257 
	C120.910339,230.681122 122.579407,231.976166 122.130043,235.178467 
	C120.968513,243.455795 121.427155,251.789536 121.184258,260.096130 
	C121.080597,263.641327 119.519211,264.650238 116.178391,264.389435 
	C109.879807,263.897797 103.559120,263.689423 96.773438,263.359985 
M94.820122,254.029465 
	C98.384155,255.131424 102.066605,254.694077 105.695328,254.784714 
	C112.469604,254.953873 113.564537,253.826736 113.657219,247.181366 
	C113.749397,240.571823 112.678268,239.482986 105.892876,239.350647 
	C103.902924,239.311829 101.907036,239.416153 99.922333,239.304459 
	C96.072563,239.087784 93.586510,240.961731 92.187408,244.345993 
	C90.746719,247.830872 90.714378,251.144028 94.820122,254.029465 
z"/>
<path fill="#000000" opacity="1.000000" stroke="none" 
	d="
M437.938690,107.306732 
	C435.389435,105.759331 434.275116,107.648857 433.057037,108.868324 
	C429.291687,112.638123 425.620453,116.501862 421.902588,120.319290 
	C419.497101,122.789192 416.900330,124.811676 413.127838,123.596642 
	C408.887726,122.231010 406.125275,119.198975 404.233215,115.339630 
	C403.343781,113.525414 404.862976,112.625282 406.111755,111.790733 
	C407.649719,110.762917 409.233582,109.558434 410.897247,111.608536 
	C413.610077,114.951477 415.960144,113.664551 418.323883,111.123230 
	C420.591461,108.685295 422.926910,106.307762 425.294525,103.966408 
	C427.668945,101.618332 429.979614,99.503731 426.066772,96.347603 
	C424.057159,94.726700 425.821289,93.064079 426.976898,91.666138 
	C428.111053,90.294144 429.448090,89.177322 431.218781,90.548431 
	C438.598572,96.262917 446.152069,101.906639 450.510284,110.452614 
	C452.583221,114.517365 452.206390,119.037628 449.653595,122.867020 
	C444.728821,130.254623 437.759918,135.747940 431.909241,142.100296 
	C424.602448,137.587906 424.498199,136.814865 429.932983,131.248978 
	C432.841309,128.270493 435.824219,125.359566 438.628601,122.285973 
	C444.148468,116.236313 444.028595,113.449928 437.938690,107.306732 
z"/>
<path fill="#000000" opacity="1.000000" stroke="none" 
	d="
M218.910583,63.964333 
	C215.862915,59.722645 217.283859,57.507103 221.520874,56.015602 
	C228.270294,53.639687 234.950150,51.113605 242.172974,50.510883 
	C249.440384,49.904446 253.896240,52.008938 256.494995,58.645393 
	C259.216034,65.594055 261.107483,72.865921 263.409943,79.980843 
	C264.507477,83.372307 261.701569,83.389442 259.856171,84.097130 
	C257.677490,84.932655 255.603012,85.166046 254.728256,82.160057 
	C253.101242,76.569023 251.363022,71.010376 249.727371,65.421776 
	C248.998077,62.929909 247.757614,60.860302 245.522903,59.445717 
	C242.242706,57.369358 238.859146,58.326687 236.028656,59.939087 
	C233.347443,61.466450 235.413376,64.161812 235.939713,66.226753 
	C237.293594,71.538292 239.267487,76.713287 240.317841,82.075226 
	C241.607574,88.659271 233.365173,95.201500 226.925858,93.094704 
	C225.125916,92.505814 224.881958,91.080162 224.813858,89.544899 
	C224.738403,87.843452 224.685013,86.058914 226.969284,85.708939 
	C231.793869,84.969765 231.707504,82.023506 230.389481,78.398903 
	C229.708237,76.525436 229.185547,74.593094 228.622025,72.678291 
	C227.212723,67.889534 226.947968,61.826859 218.910583,63.964333 
z"/>
<path fill="#000000" opacity="1.000000" stroke="none" 
	d="
M185.844025,115.295883 
	C183.983566,122.385185 179.578156,126.987289 173.961624,130.598328 
	C168.083664,134.377441 166.213760,133.531219 164.640045,126.229256 
	C168.647903,124.378952 172.418350,122.019829 175.021347,118.208549 
	C178.226166,113.516098 177.263535,107.784401 172.535858,103.447037 
	C168.430725,99.680817 163.533585,99.403748 159.411179,102.705032 
	C157.531693,104.210144 156.465683,105.920990 158.061417,108.262444 
	C159.561493,110.463531 161.386841,111.732727 163.815002,109.622658 
	C166.159088,107.585632 167.722870,108.953926 169.322968,110.593758 
	C171.338074,112.658913 169.816086,114.259125 168.548370,115.784325 
	C164.390274,120.787018 158.601761,121.224197 153.664932,116.974129 
	C144.118683,108.755852 144.135925,104.870186 153.754379,96.820885 
	C160.401337,91.258316 168.464859,90.060036 175.061050,93.654610 
	C182.794296,97.868820 186.897736,105.862259 185.844025,115.295883 
z"/>
<path fill="#000000" opacity="1.000000" stroke="none" 
	d="
M377.873657,99.972557 
	C370.475769,97.202934 370.336456,96.917358 373.870239,90.734619 
	C378.078217,83.372269 382.502533,76.129089 386.538452,68.674728 
	C388.486359,65.076920 390.650940,64.539299 394.156769,66.343246 
	C399.035797,68.853806 404.147034,70.935242 408.225800,74.760582 
	C413.120667,79.351318 414.795868,85.028481 411.938354,91.027855 
	C408.730347,97.763039 404.766479,104.145790 400.991486,110.600006 
	C399.214355,113.638496 397.011169,111.774796 394.997162,110.722702 
	C392.686584,109.515678 391.960846,107.928886 393.445282,105.459145 
	C396.443115,100.471413 399.416901,95.460052 402.152405,90.326187 
	C405.347412,84.329895 402.784607,78.828293 396.253876,76.698746 
	C393.478149,75.793625 392.198669,77.304749 391.049011,79.247169 
	C387.830780,84.684486 384.666443,90.153694 381.482819,95.611481 
	C380.572449,97.172165 380.034241,99.011848 377.873657,99.972557 
z"/>
<path fill="#000000" opacity="1.000000" stroke="none" 
	d="
M122.529533,377.941132 
	C115.793083,374.502533 111.063629,369.412720 106.767899,363.845337 
	C105.478661,362.174469 104.357529,360.495941 106.691208,358.755890 
	C108.532509,357.382965 110.306709,355.346283 112.654427,357.911316 
	C116.329926,361.927063 119.701561,360.931549 123.407471,357.751740 
	C129.046539,352.913269 134.933975,348.364258 140.636703,343.756317 
	C146.768127,349.058685 146.765503,350.988068 140.955093,355.537201 
	C137.030289,358.610077 133.063797,361.629791 129.147568,364.713409 
	C127.729202,365.830261 125.816437,367.002533 126.760033,369.123535 
	C127.792503,371.444366 130.228226,371.040802 132.056946,370.515991 
	C137.355606,368.995514 142.099518,366.156036 146.986359,363.676239 
	C151.430557,361.421051 153.164108,362.104523 154.770325,366.650482 
	C155.348190,368.285950 155.344421,369.754700 153.681915,370.478302 
	C145.705780,373.950104 138.623337,379.860565 129.180710,379.392059 
	C126.981949,379.282959 124.895195,379.000092 122.529533,377.941132 
z"/>
<path fill="#000000" opacity="1.000000" stroke="none" 
	d="
M95.295761,195.743683 
	C90.855049,193.653259 93.271431,190.707397 94.064766,188.353333 
	C94.980881,185.634872 97.297821,186.794785 99.159805,187.395004 
	C102.168694,188.364914 105.121918,189.515106 108.150070,190.416382 
	C124.030975,195.143127 126.496635,202.338928 126.961731,217.501587 
	C127.027573,219.648071 126.453094,221.808105 126.425804,223.965057 
	C126.389244,226.853897 125.293678,228.277954 122.213249,228.063583 
	C119.080437,227.845535 117.719070,226.600632 118.255325,223.275620 
	C118.896507,219.299942 116.777679,217.726242 112.929642,217.139435 
	C104.707443,215.885590 96.291595,216.825043 88.175247,214.856903 
	C87.034477,207.838913 88.275330,206.312027 94.869736,206.703644 
	C100.014839,207.009201 105.150917,207.473816 110.297501,207.743851 
	C112.033806,207.834946 114.427719,208.501129 115.083099,206.248337 
	C115.819557,203.716873 113.699181,202.333557 111.722694,201.358154 
	C106.618752,198.839386 101.050919,197.638535 95.295761,195.743683 
z"/>
<path fill="#000000" opacity="1.000000" stroke="none" 
	d="
M397.124084,420.637848 
	C397.085999,416.223694 400.919800,416.470886 403.780762,414.045654 
	C408.558167,424.333771 417.190796,432.728546 414.320312,444.977051 
	C412.324310,453.494019 405.758423,458.991394 399.285370,464.286774 
	C397.427948,465.806274 395.859589,464.844238 394.594727,463.247498 
	C393.333252,461.654999 391.759094,459.738037 393.909454,458.046204 
	C399.178467,453.900757 396.493164,450.534821 393.393250,446.816193 
	C388.639435,441.113556 382.932404,436.206024 378.790497,430.076904 
	C383.938660,424.368317 385.505280,424.274048 390.007965,429.328644 
	C393.105347,432.805756 396.044128,436.423737 399.112640,439.927185 
	C400.716248,441.758179 402.471649,444.654755 405.106415,443.130219 
	C408.116302,441.388672 406.314697,438.210419 405.229340,435.953247 
	C402.782806,430.865356 399.942322,425.966888 397.124084,420.637848 
z"/>
<path fill="#000000" opacity="1.000000" stroke="none" 
	d="
M204.935120,446.001282 
	C205.981491,444.262909 206.796890,442.813934 207.661697,441.395050 
	C211.971466,434.323853 210.931244,431.438782 203.548325,426.269348 
	C202.061584,425.228333 200.406479,424.381012 198.736115,423.659363 
	C195.772263,422.378967 196.046951,420.512756 197.176422,418.018921 
	C198.397095,415.323761 199.994217,415.351349 202.377365,416.331238 
	C206.574127,418.056946 210.457321,420.286713 213.914230,423.174286 
	C219.637772,427.955231 221.124847,435.248413 217.817505,442.161438 
	C216.456894,445.005402 214.792969,447.706635 213.220459,450.446075 
	C211.905746,452.736420 211.115814,454.859131 213.241501,457.259644 
	C215.362732,459.655090 213.229889,461.653442 211.966080,463.427185 
	C210.657394,465.263947 208.991730,464.089325 207.549713,463.260406 
	C199.334732,458.537994 191.146851,453.767883 182.904877,449.093140 
	C180.520645,447.740875 180.126236,446.138336 181.381607,443.751770 
	C182.695129,441.254578 184.248672,440.248260 186.940903,441.844574 
	C190.228760,443.794037 193.624802,445.560730 196.918396,447.500946 
	C199.896286,449.255219 202.545944,449.464233 204.935120,446.001282 
z"/>
<path fill="#000000" opacity="1.000000" stroke="none" 
	d="
M299.372437,456.523895 
	C295.381195,453.639069 291.137054,454.188599 287.019897,454.332275 
	C283.885742,454.441650 281.910492,453.688873 281.750946,450.087219 
	C281.586731,446.379547 284.107269,446.259277 286.647522,445.967407 
	C291.324127,445.430054 295.953705,445.857880 300.500183,446.916748 
	C306.659973,448.351318 310.572327,452.755554 311.308136,459.087036 
	C311.728424,462.703522 311.925507,466.354675 312.033691,469.995850 
	C312.116699,472.790649 312.383820,475.236816 315.462006,476.505890 
	C318.159607,477.618011 317.327728,480.132263 317.086578,482.170868 
	C316.820221,484.422394 314.865448,484.304016 313.211609,484.310120 
	C303.904846,484.344391 294.597931,484.328308 285.291199,484.366394 
	C282.592010,484.377441 280.860535,483.579224 280.765533,480.446320 
	C280.665253,477.137878 282.294861,476.007080 285.310699,476.028595 
	C289.298950,476.057068 293.287750,476.003937 297.276337,475.984436 
	C300.694489,475.967743 302.702820,474.286560 302.617737,470.838135 
	C302.498138,465.991577 304.089844,460.727417 299.372437,456.523895 
z"/>
<path fill="#000000" opacity="1.000000" stroke="none" 
	d="
M88.439659,343.241364 
	C84.722794,336.042480 84.855415,335.732422 92.137367,333.566711 
	C94.681953,332.809967 97.176025,331.753815 99.774040,331.328979 
	C110.307594,329.606598 117.421532,322.646637 124.546028,315.607819 
	C126.277794,313.896881 127.882874,311.916504 130.320450,311.148590 
	C134.372330,316.336090 134.283264,318.654694 129.983063,322.705444 
	C128.414780,324.182739 126.724770,325.541870 125.256012,327.110077 
	C124.187370,328.251099 123.765297,329.754425 124.549080,331.261597 
	C125.405838,332.909119 127.020119,332.768616 128.501877,332.575928 
	C129.977203,332.384094 131.482193,332.135956 132.873215,331.633179 
	C137.131866,330.093872 138.416077,332.546844 139.375198,336.012177 
	C140.566864,340.317688 137.378006,340.077637 134.900772,340.701630 
	C127.780678,342.495239 120.881027,343.160858 114.578224,338.057281 
	C112.605331,336.459778 110.145195,337.496979 107.869156,338.076477 
	C101.455498,339.709381 95.395348,342.600983 88.439659,343.241364 
z"/>
<path fill="#000000" opacity="1.000000" stroke="none" 
	d="
M351.982513,49.696430 
	C355.343781,50.867706 358.449310,51.681240 361.208954,53.146214 
	C367.464600,56.467030 370.305084,63.009022 368.757935,70.014488 
	C368.114380,72.928604 367.124420,75.764626 366.356842,78.653397 
	C365.547516,81.699371 363.508789,84.728615 368.047424,87.104836 
	C370.159302,88.210541 368.194611,90.717148 367.513275,92.463089 
	C366.799255,94.292946 365.295380,94.071892 363.735046,93.566673 
	C354.411407,90.547783 345.082611,87.544609 335.743195,84.574860 
	C333.440643,83.842674 332.444946,82.666924 333.393372,80.136665 
	C334.302948,77.709999 335.303284,75.851166 338.395630,76.893211 
	C342.644104,78.324852 346.950623,79.591911 351.163147,81.120003 
	C354.120331,82.192711 355.987488,81.549477 356.829681,78.418144 
	C357.088013,77.457726 357.457062,76.527428 357.764893,75.579948 
	C361.756073,63.296539 360.225586,60.433083 347.856750,57.002972 
	C345.148590,56.251945 342.047913,55.990555 343.329529,51.647106 
	C344.566315,47.455360 347.383514,48.683746 350.120209,49.273392 
	C350.606720,49.378220 351.086731,49.513317 351.982513,49.696430 
z"/>
<path fill="#000000" opacity="1.000000" stroke="none" 
	d="
M113.277008,145.371796 
	C116.701431,142.108032 118.581566,138.158920 120.900925,134.522690 
	C122.452354,132.090378 124.010201,131.523819 126.615150,133.130508 
	C132.609451,136.827667 138.560654,140.319107 140.699783,147.853287 
	C141.663422,151.247330 144.278671,153.881256 147.601349,155.418640 
	C151.531281,157.236969 150.138184,159.504913 148.644012,162.235550 
	C146.809692,165.587845 144.825211,164.505417 142.528870,163.036362 
	C138.223984,160.282440 134.526443,157.077164 133.130875,151.852081 
	C132.659470,150.087158 131.783264,148.460678 130.467972,147.102982 
	C127.265076,143.796844 125.135170,143.853516 122.427345,147.620621 
	C120.387978,150.457809 118.458199,153.390930 116.708366,156.413757 
	C115.240051,158.950287 113.499306,158.954025 111.337761,157.558899 
	C107.420395,155.030518 103.535431,152.450714 99.585541,149.974365 
	C97.077179,148.401749 97.410988,146.637680 98.832298,144.523300 
	C100.190956,142.502106 101.253723,140.542313 104.316254,142.251495 
	C106.997314,143.747803 109.417885,146.199982 113.277008,145.371796 
z"/>
<path fill="#000000" opacity="1.000000" stroke="none" 
	d="
M313.620239,44.664650 
	C314.606659,53.242012 313.948151,61.055515 308.184662,67.602257 
	C305.887451,70.211693 306.053955,73.462563 305.984253,76.616821 
	C305.917023,79.659004 304.695374,81.206367 301.409851,81.042755 
	C298.164093,80.881126 296.556213,79.694160 296.704163,76.181160 
	C296.920135,71.053230 297.951202,66.303955 301.313202,62.243103 
	C302.369110,60.967731 303.479706,59.640755 304.134491,58.148392 
	C306.116608,53.631134 304.533691,51.249214 299.665588,51.050625 
	C295.199646,50.868439 290.682037,51.262428 285.758453,49.854317 
	C285.758453,43.967411 285.150330,37.934914 285.943359,32.092613 
	C286.625763,27.065279 291.000153,30.639542 293.652252,29.756811 
	C295.125305,32.743153 294.265961,35.607567 294.274567,38.349236 
	C294.284698,41.574871 295.606476,42.650322 298.734497,42.882412 
	C303.631683,43.245766 308.725739,41.763802 313.620239,44.664650 
z"/>
<path fill="#000000" opacity="1.000000" stroke="none" 
	d="
M355.646118,437.351562 
	C369.763000,434.048767 374.762970,436.782227 379.413330,450.014496 
	C380.954803,454.400665 382.487305,458.790161 383.989929,463.189728 
	C384.981506,466.093079 384.675201,468.250397 381.180786,469.335052 
	C377.942505,470.340271 376.286438,469.600861 375.318024,466.256317 
	C373.843597,461.164246 372.238098,456.078094 370.214569,451.185303 
	C367.738953,445.199402 364.734711,443.965698 358.411774,445.192749 
	C354.747101,445.903931 351.558533,447.666656 348.271088,449.236389 
	C345.853210,450.390961 344.212891,449.897003 343.111115,447.335663 
	C342.085968,444.952423 341.613586,442.948029 344.569824,441.563660 
	C348.037445,439.939850 351.538330,438.438934 355.646118,437.351562 
z"/>
<path fill="#000000" opacity="1.000000" stroke="none" 
	d="
M272.450867,472.317627 
	C272.050903,474.361145 271.623444,475.977722 271.404419,477.622070 
	C270.956482,480.985138 269.838623,482.454926 265.827454,481.663452 
	C261.563843,480.822174 261.822418,478.771210 262.584351,475.658508 
	C263.571320,471.626434 264.281097,467.527008 265.137085,463.462219 
	C267.023102,454.505981 264.280487,450.341217 255.240860,448.557373 
	C253.611725,448.235901 251.946350,448.100372 250.300018,447.862976 
	C247.806229,447.503357 246.389938,446.475983 246.945633,443.549561 
	C247.452164,440.881989 248.383850,439.210632 251.470520,439.716248 
	C256.723511,440.576752 262.009888,441.294769 266.862823,443.679932 
	C273.173401,446.781525 276.205261,452.289429 275.127563,459.198242 
	C274.461945,463.465118 273.401093,467.670349 272.450867,472.317627 
z"/>
<path fill="#000000" opacity="1.000000" stroke="none" 
	d="
M472.583191,159.653412 
	C462.767883,165.335754 453.238739,170.783249 443.770630,176.334824 
	C440.925232,178.003204 438.632599,179.114151 436.389648,175.275620 
	C434.261444,171.633499 435.714874,170.048431 438.801453,168.297989 
	C450.811218,161.487045 462.795074,154.622787 474.620514,147.499374 
	C478.040283,145.439392 479.498566,146.538330 481.298157,149.436996 
	C483.255646,152.589951 482.266052,154.160614 479.294678,155.589096 
	C477.057648,156.664581 475.019470,158.153549 472.583191,159.653412 
z"/>
<path fill="#000000" opacity="1.000000" stroke="none" 
	d="
M143.019409,388.996643 
	C148.029282,385.102325 152.819641,381.501984 157.470581,377.729736 
	C160.083923,375.610107 161.831345,376.310730 163.645905,378.775574 
	C165.295258,381.016022 166.384369,382.921967 163.525482,385.081665 
	C155.431671,391.196075 147.375519,397.361450 139.368622,403.589142 
	C136.488403,405.829346 135.042084,404.205841 133.350494,401.975098 
	C131.533463,399.578918 131.071442,397.765533 133.973999,395.828918 
	C137.013535,393.800903 139.828461,391.436279 143.019409,388.996643 
z"/>
<path fill="#000000" opacity="1.000000" stroke="none" 
	d="
M146.125031,135.902222 
	C141.655273,132.132751 137.513428,128.521194 133.233261,125.081772 
	C130.506500,122.890625 131.207016,121.041687 133.217239,118.866226 
	C135.068146,116.863197 136.558762,115.339363 139.357941,117.787857 
	C146.873825,124.362114 154.543320,130.762741 162.224030,137.145416 
	C164.723221,139.222244 164.745865,140.982681 162.531921,143.350922 
	C160.413483,145.616974 158.719757,146.741562 155.975128,144.125854 
	C152.970993,141.262802 149.603500,138.780991 146.125031,135.902222 
z"/>
<path fill="#000000" opacity="1.000000" stroke="none" 
	d="
M224.759033,459.855469 
	C227.520004,452.515564 230.207352,445.560425 232.782104,438.563843 
	C233.897003,435.534271 234.849243,432.990417 239.089417,434.731415 
	C242.834656,436.269287 243.025604,438.269440 241.643188,441.678680 
	C238.218613,450.124023 235.129623,458.705505 231.907089,467.232758 
	C230.849411,470.031494 229.898880,472.446869 225.872635,470.689148 
	C222.347473,469.150146 221.164474,467.421082 223.244385,463.942963 
	C223.913025,462.824829 224.185822,461.470001 224.759033,459.855469 
z"/>
<path fill="#000000" opacity="1.000000" stroke="none" 
	d="
M428.882324,432.147278 
	C423.807770,425.988129 418.948303,420.113861 414.100067,414.230408 
	C409.244568,408.338104 409.404846,407.684082 417.139587,403.785126 
	C424.418793,412.556061 431.837585,421.425568 439.164124,430.370667 
	C441.062073,432.687958 438.803406,433.958130 437.457214,435.264221 
	C436.008575,436.669678 434.354675,438.122711 432.324860,436.204803 
	C431.128937,435.074768 430.168610,433.695343 428.882324,432.147278 
z"/>
<path fill="#000000" opacity="1.000000" stroke="none" 
	d="
M506.169861,326.133606 
	C504.670288,333.305084 504.663849,333.329590 497.906158,331.554840 
	C489.736053,329.409149 481.578522,327.215820 473.415070,325.044861 
	C470.275818,324.209991 467.941254,323.244751 469.213837,318.928528 
	C470.409821,314.872101 472.683105,315.287140 475.644592,316.115967 
	C484.419342,318.571777 493.213684,320.957428 501.994598,323.391357 
	C503.553131,323.823364 505.355438,323.877777 506.169861,326.133606 
z"/>
<path fill="#000000" opacity="1.000000" stroke="none" 
	d="
M267.995117,52.912289 
	C268.336365,49.930916 265.853088,46.624149 269.366760,44.909660 
	C273.660187,42.814663 276.074432,44.236908 276.732025,49.165047 
	C277.983459,58.543549 278.962036,67.958305 280.192566,77.339821 
	C280.705109,81.247673 278.071075,81.569664 275.391113,82.193024 
	C272.252045,82.923157 271.195984,81.398628 270.896057,78.591690 
	C269.996216,70.168961 269.016937,61.754723 267.995117,52.912289 
z"/>
<path fill="#000000" opacity="1.000000" stroke="none" 
	d="
M329.364807,76.194931 
	C328.818848,79.953461 329.375336,84.116463 323.692566,83.008934 
	C320.412323,82.369644 319.323730,80.781342 319.921509,77.452164 
	C321.616699,68.011200 323.297882,58.558315 324.559235,49.053677 
	C325.034332,45.473858 326.624847,45.316376 329.535583,45.528774 
	C332.819977,45.768444 333.921936,47.081715 333.400024,50.261265 
	C332.006378,58.751270 330.720856,67.259018 329.364807,76.194931 
z"/>
<path fill="#000000" opacity="1.000000" stroke="none" 
	d="
M360.726532,475.380066 
	C354.049683,478.755463 353.595428,478.506714 351.537292,471.834320 
	C350.312744,467.864441 348.858826,463.963867 347.453827,460.051605 
	C346.533630,457.489319 347.817657,456.292999 350.052917,455.688202 
	C352.026062,455.154327 354.519623,453.498260 355.579773,456.577240 
	C357.667328,462.640045 360.913330,468.392548 360.726532,475.380066 
z"/>
<path fill="#000000" opacity="1.000000" stroke="none" 
	d="
M491.008606,168.709869 
	C491.173737,169.203033 491.272156,169.380859 491.235931,169.524857 
	C490.514191,172.395676 475.997406,180.253296 473.522949,178.927414 
	C471.299469,177.736023 470.824921,175.205917 470.341644,172.990479 
	C469.922363,171.068146 471.847443,170.665665 473.139832,170.052170 
	C476.436432,168.487228 479.892639,167.215637 483.054688,165.420929 
	C487.076996,163.137970 489.515411,164.098373 491.008606,168.709869 
z"/>
<path fill="#000000" opacity="1.000000" stroke="none" 
	d="
M194.944672,92.716942 
	C189.376297,96.473877 189.396149,96.461685 186.100220,91.094688 
	C184.370453,88.277985 182.702255,85.405334 180.742416,82.752907 
	C178.576004,79.820892 179.013519,78.013336 182.119583,75.982796 
	C185.185181,73.978722 186.730865,74.757339 188.380997,77.576416 
	C190.299286,80.853645 192.628326,83.889168 194.578171,87.149750 
	C195.520706,88.725861 197.201584,90.443275 194.944672,92.716942 
z"/>
<path fill="#000000" opacity="1.000000" stroke="none" 
	d="
M174.816223,392.106628 
	C179.012650,395.137817 178.974335,397.792053 175.174088,400.878601 
	C172.101944,403.373779 169.409454,406.341034 166.588364,409.139008 
	C164.622986,411.088287 163.040054,410.292145 161.602066,408.519714 
	C160.240677,406.841675 157.410385,405.328827 159.884293,402.771240 
	C163.560547,398.970612 167.521637,395.443512 171.403275,391.845032 
	C172.385574,390.934448 173.511749,391.035950 174.816223,392.106628 
z"/>
<path fill="#000000" opacity="1.000000" stroke="none" 
	d="
M365.044922,372.289124 
	C363.390198,373.610504 361.661316,373.472717 360.046112,373.675201 
	C354.812378,374.331116 352.529602,371.690765 353.903992,366.657959 
	C356.022644,358.899841 356.868774,358.754669 365.171356,364.724457 
	C362.579803,368.013885 362.148926,368.171112 356.937622,367.728729 
	C357.032745,370.975800 357.032745,370.975800 366.345886,370.024475 
	C366.596558,371.014618 365.833405,371.489899 365.044922,372.289124 
z"/>
</svg>