<svg version="1.1" id="Layer_1" xmlns="http://www.w3.org/2000/svg" xmlns:xlink="http://www.w3.org/1999/xlink" x="0px" y="0px"
	 width="100%" viewBox="0 0 304 576" enable-background="new 0 0 304 576" xml:space="preserve">
<path fill="#000000" opacity="1.000000" stroke="none" 
	d="
M112.437500,577.000000 
	C110.840691,571.592102 110.416885,566.135559 110.863121,560.613770 
	C111.096321,557.728271 110.559906,554.997375 109.248734,552.387207 
	C108.656265,551.207764 108.076561,549.917480 107.938957,548.629639 
	C106.027184,530.737610 98.284401,514.604919 92.795471,497.784180 
	C88.104492,483.408752 83.752449,468.924500 78.372330,454.780548 
	C77.536865,452.584167 76.758751,450.543182 74.420364,449.298981 
	C69.173904,446.507446 67.800018,441.676880 68.382332,436.179443 
	C68.704933,433.133881 68.789322,430.311859 67.200188,427.485870 
	C66.336426,425.949799 65.913208,424.002472 65.831947,422.216064 
	C65.252739,409.482513 60.888618,397.888428 55.543774,386.527100 
	C50.082260,374.917755 45.579720,362.981018 42.277023,350.518036 
	C39.046947,338.329071 35.191051,326.259216 30.210459,314.645233 
	C28.116581,309.762604 29.170321,306.650665 33.206127,303.522400 
	C54.527042,286.995880 68.849083,264.815887 80.770729,241.300659 
	C95.478920,212.289001 106.262466,181.723557 111.763962,149.448425 
	C113.991951,136.377655 117.933273,123.663254 119.013016,110.298851 
	C119.462181,104.739311 122.733826,99.449722 122.970695,93.482750 
	C123.081917,90.681076 126.424782,90.726593 128.549652,90.159096 
	C135.174164,88.389847 139.125183,82.249008 137.465820,75.560272 
	C136.887833,73.230446 136.289230,70.993576 137.369690,68.755898 
	C139.895111,63.525703 139.973404,57.809910 140.637955,52.239162 
	C141.047638,48.804882 142.221878,47.249832 145.969711,47.339294 
	C149.753754,47.429623 153.621094,46.976421 157.339447,46.213215 
	C163.602982,44.927593 169.193481,45.268864 173.823013,50.386692 
	C176.475128,53.318523 179.010406,53.069096 180.795059,49.302841 
	C181.427856,47.967400 182.555191,47.418949 183.905258,47.061848 
	C189.779205,45.508186 192.100098,42.788208 192.644485,36.813385 
	C192.840958,34.657112 192.893219,32.488029 193.068390,30.329426 
	C193.639526,23.291185 198.299072,19.509546 205.483490,20.458818 
	C209.047058,20.929668 211.284195,18.607676 213.173050,16.550240 
	C216.982315,12.400958 221.575516,12.347854 226.479126,12.770410 
	C228.240356,12.922180 230.375473,13.581379 230.481842,15.214243 
	C231.075729,24.332026 239.087006,31.716154 236.455063,41.576611 
	C235.645721,44.608753 238.979065,46.555344 239.226471,49.406338 
	C239.886414,57.011250 241.125870,64.501724 243.367935,71.816040 
	C243.593933,72.553345 243.746872,73.733162 243.345856,74.179840 
	C236.811356,81.458427 237.868713,92.507072 230.386612,99.487053 
	C226.374359,103.230057 224.332077,109.201164 217.208405,108.462364 
	C214.831253,108.215828 215.047134,112.158295 213.153168,112.344078 
	C208.756927,112.775322 207.210068,116.455566 204.544800,118.886665 
	C203.653015,119.700073 202.854843,120.328590 203.010880,121.749290 
	C204.062134,131.321075 203.541061,140.773193 201.878784,150.305130 
	C201.012802,155.270813 201.657089,160.615906 202.301834,165.703110 
	C203.394669,174.325790 202.863968,182.641235 201.260193,191.249130 
	C199.930969,198.383606 198.225464,205.517273 199.817825,213.467667 
	C201.706467,222.897324 200.346954,232.991150 200.251114,242.795731 
	C200.224823,245.485367 198.868088,247.040543 196.045914,245.397507 
	C193.682953,244.021820 192.288559,245.382233 190.895065,246.878540 
	C185.235535,252.955597 183.362946,260.830688 181.316437,268.439087 
	C179.011780,277.007324 180.292297,286.199158 177.452454,294.763763 
	C176.957870,296.255402 177.202713,297.842957 178.160782,299.065002 
	C183.134018,305.408508 180.354446,311.859222 177.814774,317.785553 
	C174.069733,326.524567 177.530273,336.669952 186.448792,340.219513 
	C189.833282,341.566528 190.790222,343.714935 189.163681,346.866425 
	C186.728180,351.585297 185.500763,356.419220 186.386902,361.795471 
	C186.955673,365.246246 184.571747,367.614288 181.937576,368.996399 
	C177.512863,371.318024 175.536713,374.478333 176.283051,379.473602 
	C176.728180,382.452881 175.697021,385.027618 173.333801,387.043640 
	C172.596619,387.672485 171.594193,388.541626 171.551010,389.345764 
	C171.201141,395.859741 168.522156,401.505402 165.438461,407.059326 
	C164.904755,408.020569 165.367706,409.713226 164.691589,410.390106 
	C157.234207,417.855621 158.251755,428.313751 155.126663,437.283966 
	C153.513031,441.915771 155.554749,446.761475 155.866531,451.508148 
	C156.013412,453.744568 156.070572,455.715363 155.023773,457.754669 
	C152.171066,463.312317 151.216736,469.209717 153.481537,475.117432 
	C156.317337,482.514587 155.569885,489.057983 150.241196,495.047607 
	C143.446503,502.684998 142.596298,512.223022 142.357697,521.743164 
	C142.233582,526.694580 141.353119,531.249695 139.451736,535.775879 
	C136.803757,542.079224 134.349167,548.482605 135.568848,555.577820 
	C135.944183,557.761292 134.221146,559.257019 133.681213,561.095581 
	C131.460312,568.657959 124.610992,571.768066 119.210030,576.737610 
	C116.958336,577.000000 114.916664,577.000000 112.437500,577.000000 
M105.924911,193.167526 
	C105.028793,195.497818 104.037758,197.796585 103.251770,200.163452 
	C97.622261,217.116013 89.953011,233.274460 81.644379,248.931076 
	C69.989014,270.894165 55.812012,291.328827 36.059521,307.156036 
	C33.913937,308.875244 33.494305,310.681580 34.541073,313.253021 
	C37.112770,319.570496 39.275730,326.035492 41.408871,332.523621 
	C47.528397,351.136566 51.716648,370.379639 60.833870,388.022491 
	C66.408470,398.809937 70.303940,410.399078 70.392776,422.869781 
	C70.399506,423.814758 70.667908,424.990112 71.263412,425.658691 
	C73.949448,428.674164 73.697777,432.277527 72.841057,435.598419 
	C71.690033,440.060120 73.107300,443.024139 76.706802,445.391632 
	C78.964340,446.876495 80.970245,448.616058 81.893585,451.282379 
	C87.061310,466.205505 92.315582,481.099487 97.357559,496.065002 
	C101.235481,507.575470 104.815933,519.185913 108.590508,530.731628 
	C109.618965,533.877502 112.212563,536.510925 112.234467,539.951416 
	C112.299896,550.228760 116.911674,559.988892 115.621460,570.408142 
	C115.596176,570.612305 116.031334,570.873535 116.261574,571.098877 
	C125.184464,567.774780 130.799469,560.151428 130.624008,551.212402 
	C130.540497,546.957397 131.297134,542.965576 132.920807,539.060913 
	C135.667267,532.456360 138.045242,525.919312 137.842239,518.414978 
	C137.599152,509.427856 139.404633,500.628815 145.753281,493.563721 
	C150.686798,488.073456 150.729965,481.823059 148.735168,475.310913 
	C146.803223,469.003967 146.723312,463.007080 150.137680,457.088959 
	C151.846252,454.127502 152.045044,450.801300 151.140579,447.396484 
	C149.788101,442.305084 150.307556,437.452850 151.844177,432.274780 
	C154.273132,424.089722 154.211014,415.103577 160.321915,408.210205 
	C160.508774,407.999451 160.388184,407.544556 160.510956,407.244385 
	C162.981964,401.202789 166.615311,395.606842 166.824371,388.710571 
	C166.870270,387.196686 168.726746,385.690308 169.862137,384.270599 
	C170.922913,382.944244 171.809219,381.780212 171.377960,379.814301 
	C170.035660,373.695618 172.579773,369.061493 177.713409,365.991241 
	C180.706802,364.200989 181.862106,361.920227 181.680191,358.613098 
	C181.486420,355.090790 181.622269,351.606171 183.605789,348.477173 
	C185.318634,345.775208 184.497131,344.097656 181.446716,343.465424 
	C178.714478,342.899109 177.487381,340.867889 176.049316,338.715851 
	C170.745102,330.778168 170.517883,322.568146 174.083969,313.988342 
	C176.028198,309.310669 176.556427,304.703674 173.667404,300.126862 
	C172.351730,298.042603 172.146027,295.582672 173.118347,293.380402 
	C176.357071,286.044861 174.747986,278.066895 176.302002,270.426514 
	C177.955429,262.297546 181.312729,255.061188 184.351532,247.613449 
	C185.449631,244.922165 188.190384,243.094742 190.897217,241.633041 
	C196.507187,238.603683 196.081223,236.528320 196.450302,230.090759 
	C197.051071,219.612198 192.193787,209.889084 195.007767,198.776779 
	C197.327560,189.615997 199.128418,179.640091 197.924408,169.486023 
	C196.469315,157.214828 197.880234,144.770584 198.676758,132.417633 
	C198.865448,129.491470 200.344345,126.627602 198.835724,123.619331 
	C197.186752,120.331261 197.620331,117.564270 201.093597,115.570374 
	C201.846298,115.138268 202.371933,114.052803 202.682831,113.157394 
	C203.610031,110.486778 205.435547,109.071999 208.196335,108.815689 
	C209.387939,108.705048 210.697998,108.619209 211.215546,107.421867 
	C212.660172,104.079773 215.376953,103.474213 218.592850,103.579292 
	C220.170197,103.630836 221.703415,102.891647 222.539261,101.691109 
	C227.073990,95.177757 234.569031,90.226021 233.713440,80.806534 
	C233.529495,78.781364 235.021118,77.505478 236.154388,76.062622 
	C237.956360,73.768402 238.703659,71.403183 238.054825,68.229935 
	C235.899200,57.687435 231.807571,47.455006 232.611221,36.403225 
	C232.727631,34.802261 231.197067,33.597752 231.111252,32.282246 
	C230.754044,26.805969 223.992508,23.809530 225.986710,17.698181 
	C222.138092,16.495848 219.215958,17.337845 216.468674,19.779137 
	C213.623520,22.307383 210.731308,24.874302 206.578156,25.156761 
	C198.357758,25.715834 198.141785,26.403692 197.181961,34.543877 
	C196.316132,41.887001 195.787186,49.961662 185.922287,51.636169 
	C185.354202,51.732601 184.861343,52.388939 184.374634,52.830105 
	C178.830826,57.855099 175.601425,58.020256 170.253998,53.121323 
	C167.287796,50.403900 164.177795,49.354214 160.220581,50.422199 
	C156.578461,51.405144 152.932312,52.649681 149.012299,51.453163 
	C147.762314,51.071625 145.843369,51.363712 145.719971,52.913723 
	C145.137421,60.230724 141.093170,67.089020 142.782715,74.680695 
	C144.473907,82.279839 137.989807,92.639191 130.277954,94.361404 
	C128.565125,94.743912 127.423637,95.503044 127.330750,97.195847 
	C126.973869,103.699966 124.111641,109.588043 122.993660,115.975983 
	C118.495361,141.678467 112.740356,167.140671 105.924911,193.167526 
z"/>
</svg>